<svg width="539" height="120" viewBox="0 0 539 120" fill="none" xmlns="http://www.w3.org/2000/svg">
<path opacity="0.1" d="M13.268 55.14L12.801 56.0243L12.8088 56.0284L13.268 55.14ZM4.588 47.08L3.72862 47.5915L3.73599 47.6035L4.588 47.08ZM4.588 23.582L3.73321 23.063L3.73142 23.066L4.588 23.582ZM13.268 15.522L13.7272 16.4104L13.735 16.4063L13.268 15.522ZM36.952 14.84L36.5416 15.7519V15.7519L36.952 14.84ZM45.136 21.288L45.8019 22.034L46.4934 21.4168L45.9304 20.6805L45.136 21.288ZM35.898 29.534L35.1143 30.1552L35.773 30.9861L36.5639 30.28L35.898 29.534ZM19.034 27.426L19.7563 28.1176L19.7635 28.1099L19.034 27.426ZM19.034 43.236L18.3044 43.92L18.3117 43.9276L19.034 43.236ZM35.898 41.066L36.5639 40.32L35.773 39.6139L35.1143 40.4448L35.898 41.066ZM45.136 49.312L45.9304 49.9194L46.4934 49.1832L45.8019 48.566L45.136 49.312ZM36.952 55.76L36.5416 54.8481L36.952 55.76ZM25.668 56.992C21.2222 56.992 17.2491 56.072 13.7272 54.2516L12.8088 56.0284C16.6442 58.0107 20.9378 58.992 25.668 58.992V56.992ZM13.735 54.2557C10.2091 52.3938 7.45107 49.8294 5.44001 46.5565L3.73599 47.6035C5.94093 51.192 8.96953 54.0009 12.801 56.0243L13.735 54.2557ZM5.44729 46.5685C3.48043 43.2642 2.488 39.517 2.488 35.3H0.488C0.488 39.8457 1.56223 43.9518 3.72871 47.5915L5.44729 46.5685ZM2.488 35.3C2.488 31.0829 3.48045 27.3585 5.44458 24.098L3.73142 23.066C1.56221 26.6669 0.488 30.7545 0.488 35.3H2.488ZM5.44279 24.101C7.45343 20.7893 10.2085 18.229 13.7272 16.4104L12.8088 14.6336C8.97021 16.6177 5.93857 19.4307 3.73321 23.063L5.44279 24.101ZM13.735 16.4063C17.2554 14.5472 21.2257 13.608 25.668 13.608V11.608C20.9343 11.608 16.638 12.6115 12.801 14.6377L13.735 16.4063ZM25.668 13.608C29.7654 13.608 33.3833 14.3307 36.5416 15.7519L37.3624 13.9281C33.9074 12.3733 30.0026 11.608 25.668 11.608V13.608ZM36.5416 15.7519C39.7009 17.1736 42.2956 19.2199 44.3416 21.8954L45.9304 20.6805C43.6777 17.7348 40.8164 15.4824 37.3624 13.9281L36.5416 15.7519ZM44.4701 20.542L35.2321 28.788L36.5639 30.28L45.8019 22.034L44.4701 20.542ZM36.6817 28.9128C33.8453 25.3347 30.4138 23.45 26.412 23.45V25.45C29.6849 25.45 32.5773 26.9547 35.1143 30.1552L36.6817 28.9128ZM26.412 23.45C23.1149 23.45 20.378 24.5303 18.3045 26.7421L19.7635 28.1099C21.41 26.3537 23.5917 25.45 26.412 25.45V23.45ZM18.3117 26.7344C16.2346 28.9039 15.244 31.798 15.244 35.3H17.244C17.244 32.1886 18.1134 29.8335 19.7563 28.1176L18.3117 26.7344ZM15.244 35.3C15.244 38.8028 16.2348 41.7123 18.3045 43.9199L19.7635 42.5521C18.1132 40.7917 17.244 38.4105 17.244 35.3H15.244ZM18.3117 43.9276C20.3869 46.095 23.1216 47.15 26.412 47.15V45.15C23.5851 45.15 21.4011 44.2623 19.7563 42.5444L18.3117 43.9276ZM26.412 47.15C30.4138 47.15 33.8453 45.2653 36.6817 41.6872L35.1143 40.4448C32.5773 43.6453 29.6849 45.15 26.412 45.15V47.15ZM35.2321 41.812L44.4701 50.058L45.8019 48.566L36.5639 40.32L35.2321 41.812ZM44.3416 48.7045C42.2956 51.3801 39.7009 53.4264 36.5416 54.8481L37.3624 56.6719C40.8164 55.1176 43.6777 52.8652 45.9304 49.9194L44.3416 48.7045ZM36.5416 54.8481C33.3833 56.2693 29.7654 56.992 25.668 56.992V58.992C30.0026 58.992 33.9074 58.2267 37.3624 56.6719L36.5416 54.8481ZM88.5694 49.436L89.5026 49.0765L89.2558 48.436H88.5694V49.436ZM72.0774 49.436V48.436H71.391L71.1443 49.0765L72.0774 49.436ZM69.1634 57V58H69.8498L70.0966 57.3595L69.1634 57ZM54.2834 57L53.3671 56.5995L52.7549 58H54.2834V57ZM73.2554 13.6V12.6H72.6012L72.3391 13.1995L73.2554 13.6ZM87.6394 13.6L88.5557 13.1995L88.2936 12.6H87.6394V13.6ZM106.611 57V58H108.14L107.528 56.5995L106.611 57ZM91.4834 57L90.5503 57.3595L90.797 58H91.4834V57ZM84.5394 38.896V39.896H85.9978L85.4722 38.5356L84.5394 38.896ZM80.3234 27.984L81.2562 27.6236L80.3234 25.2093L79.3906 27.6236L80.3234 27.984ZM76.1074 38.896L75.1746 38.5356L74.649 39.896H76.1074V38.896ZM88.5694 48.436H72.0774V50.436H88.5694V48.436ZM71.1443 49.0765L68.2303 56.6405L70.0966 57.3595L73.0106 49.7955L71.1443 49.0765ZM69.1634 56H54.2834V58H69.1634V56ZM55.1997 57.4005L74.1717 14.0005L72.3391 13.1995L53.3671 56.5995L55.1997 57.4005ZM73.2554 14.6H87.6394V12.6H73.2554V14.6ZM86.7231 14.0005L105.695 57.4005L107.528 56.5995L88.5557 13.1995L86.7231 14.0005ZM106.611 56H91.4834V58H106.611V56ZM92.4166 56.6405L89.5026 49.0765L87.6363 49.7955L90.5503 57.3595L92.4166 56.6405ZM85.4722 38.5356L81.2562 27.6236L79.3906 28.3444L83.6066 39.2564L85.4722 38.5356ZM79.3906 27.6236L75.1746 38.5356L77.0402 39.2564L81.2562 28.3444L79.3906 27.6236ZM76.1074 39.896H84.5394V37.896H76.1074V39.896ZM119.607 13.6V12.6H118.607V13.6H119.607ZM133.991 13.6H134.991V12.6H133.991V13.6ZM133.991 36.168H132.991V39.4898L134.825 36.7201L133.991 36.168ZM148.933 13.6V12.6H148.396L148.099 13.0479L148.933 13.6ZM162.697 13.6H163.697V12.6H162.697V13.6ZM162.697 57V58H163.697V57H162.697ZM148.313 57H147.313V58H148.313V57ZM148.313 34.494H149.313V31.1683L147.479 33.9425L148.313 34.494ZM133.433 57V58H133.971L134.267 57.5515L133.433 57ZM119.607 57H118.607V58H119.607V57ZM130.767 8.454L131.412 7.68947V7.68947L130.767 8.454ZM127.605 0.455996V-0.544003H126.605V0.455996H127.605ZM137.339 0.455996H138.339V-0.544003H137.339V0.455996ZM138.145 3.494L137.39 4.14893L137.402 4.16285L137.414 4.17632L138.145 3.494ZM144.097 3.494L143.39 2.78689L143.378 2.79908L143.366 2.81168L144.097 3.494ZM145.027 0.455996V-0.544003H144.027V0.455996H145.027ZM154.761 0.455996H155.761V-0.544003H154.761V0.455996ZM151.537 8.454L150.9 7.68335V7.68335L151.537 8.454ZM119.607 14.6H133.991V12.6H119.607V14.6ZM132.991 13.6V36.168H134.991V13.6H132.991ZM134.825 36.7201L149.767 14.1521L148.099 13.0479L133.157 35.6159L134.825 36.7201ZM148.933 14.6H162.697V12.6H148.933V14.6ZM161.697 13.6V57H163.697V13.6H161.697ZM162.697 56H148.313V58H162.697V56ZM149.313 57V34.494H147.313V57H149.313ZM147.479 33.9425L132.599 56.4485L134.267 57.5515L149.147 35.0455L147.479 33.9425ZM133.433 56H119.607V58H133.433V56ZM120.607 57V13.6H118.607V57H120.607ZM141.121 10.12C136.404 10.12 133.247 9.23707 131.412 7.68947L130.123 9.21852C132.503 11.2256 136.249 12.12 141.121 12.12V10.12ZM131.412 7.68947C129.591 6.15421 128.605 3.80754 128.605 0.455996H126.605C126.605 4.21379 127.728 7.19912 130.123 9.21852L131.412 7.68947ZM127.605 1.456H137.339V-0.544003H127.605V1.456ZM136.339 0.455996C136.339 1.94489 136.616 3.25595 137.39 4.14893L138.901 2.83907C138.6 2.49204 138.339 1.77777 138.339 0.455996H136.339ZM137.414 4.17632C138.275 5.0985 139.613 5.424 141.121 5.424V3.424C139.819 3.424 139.173 3.12949 138.876 2.81168L137.414 4.17632ZM141.121 5.424C142.629 5.424 143.968 5.0985 144.828 4.17632L143.366 2.81168C143.07 3.12949 142.424 3.424 141.121 3.424V5.424ZM144.804 4.20111C145.698 3.30738 146.027 1.97282 146.027 0.455996H144.027C144.027 1.74985 143.736 2.44062 143.39 2.78689L144.804 4.20111ZM145.027 1.456H154.761V-0.544003H145.027V1.456ZM153.761 0.455996C153.761 3.80118 152.759 6.14605 150.9 7.68335L152.174 9.22464C154.614 7.20728 155.761 4.22015 155.761 0.455996H153.761ZM150.9 7.68335C149.02 9.23816 145.835 10.12 141.121 10.12V12.12C145.997 12.12 149.756 11.2245 152.174 9.22464L150.9 7.68335ZM216.348 24.946V25.946H217.348V24.946H216.348ZM203.638 24.946V23.946H202.638V24.946H203.638ZM203.638 57V58H204.638V57H203.638ZM189.254 57H188.254V58H189.254V57ZM189.254 24.946H190.254V23.946H189.254V24.946ZM176.544 24.946H175.544V25.946H176.544V24.946ZM176.544 13.6V12.6H175.544V13.6H176.544ZM216.348 13.6H217.348V12.6H216.348V13.6ZM216.348 23.946H203.638V25.946H216.348V23.946ZM202.638 24.946V57H204.638V24.946H202.638ZM203.638 56H189.254V58H203.638V56ZM190.254 57V24.946H188.254V57H190.254ZM189.254 23.946H176.544V25.946H189.254V23.946ZM177.544 24.946V13.6H175.544V24.946H177.544ZM176.544 14.6H216.348V12.6H176.544V14.6ZM215.348 13.6V24.946H217.348V13.6H215.348ZM266.061 30.588L265.422 31.3571L265.429 31.3624L266.061 30.588ZM265.441 52.97L266.067 53.75L266.073 53.7452L265.441 52.97ZM230.163 57H229.163V58H230.163V57ZM230.163 13.6V12.6H229.163V13.6H230.163ZM244.547 13.6H245.547V12.6H244.547V13.6ZM244.547 26.93H243.547V27.93H244.547V26.93ZM254.343 45.406L255.035 46.1286L255.043 46.121L255.05 46.1131L254.343 45.406ZM244.547 37.16V36.16H243.547V37.16H244.547ZM244.547 46.77H243.547V47.77H244.547V46.77ZM274.431 13.6V12.6H273.431V13.6H274.431ZM288.815 13.6H289.815V12.6H288.815V13.6ZM288.815 57V58H289.815V57H288.815ZM274.431 57H273.431V58H274.431V57ZM253.537 27.93C258.815 27.93 262.729 29.1193 265.422 31.3571L266.701 29.8189C263.524 27.1793 259.089 25.93 253.537 25.93V27.93ZM265.429 31.3624C268.075 33.5245 269.463 36.7602 269.463 41.252H271.463C271.463 36.3198 269.917 32.4462 266.694 29.8136L265.429 31.3624ZM269.463 41.252C269.463 46.0947 267.882 49.6912 264.81 52.1948L266.073 53.7452C269.697 50.7928 271.463 46.5773 271.463 41.252H269.463ZM264.815 52.1901C261.699 54.6908 257.359 56 251.677 56V58C257.652 58 262.487 56.6226 266.067 53.7499L264.815 52.1901ZM251.677 56H230.163V58H251.677V56ZM231.163 57V13.6H229.163V57H231.163ZM230.163 14.6H244.547V12.6H230.163V14.6ZM243.547 13.6V26.93H245.547V13.6H243.547ZM244.547 27.93H253.537V25.93H244.547V27.93ZM250.685 47.77C252.394 47.77 253.873 47.2397 255.035 46.1286L253.652 44.6834C252.912 45.3909 251.952 45.77 250.685 45.77V47.77ZM255.05 46.1131C256.23 44.9336 256.769 43.3538 256.769 41.5H254.769C254.769 42.9528 254.358 43.977 253.636 44.6989L255.05 46.1131ZM256.769 41.5C256.769 39.8542 256.28 38.4511 255.148 37.4844C254.046 36.5437 252.499 36.16 250.685 36.16V38.16C252.261 38.16 253.256 38.4997 253.849 39.0056C254.411 39.4856 254.769 40.2525 254.769 41.5H256.769ZM250.685 36.16H244.547V38.16H250.685V36.16ZM243.547 37.16V46.77H245.547V37.16H243.547ZM244.547 47.77H250.685V45.77H244.547V47.77ZM274.431 14.6H288.815V12.6H274.431V14.6ZM287.815 13.6V57H289.815V13.6H287.815ZM288.815 56H274.431V58H288.815V56ZM275.431 57V13.6H273.431V57H275.431ZM34.472 111.436L35.4052 111.077L35.1584 110.436H34.472V111.436ZM17.98 111.436V110.436H17.2936L17.0469 111.077L17.98 111.436ZM15.066 119V120H15.7524L15.9991 119.359L15.066 119ZM0.186 119L-0.730277 118.599L-1.34252 120H0.186V119ZM19.158 75.6V74.6H18.5038L18.2417 75.1995L19.158 75.6ZM33.542 75.6L34.4583 75.1995L34.1962 74.6H33.542V75.6ZM52.514 119V120H54.0425L53.4303 118.599L52.514 119ZM37.386 119L36.4529 119.359L36.6996 120H37.386V119ZM30.442 100.896V101.896H31.9004L31.3748 100.536L30.442 100.896ZM26.226 89.984L27.1588 89.6236L26.226 87.2093L25.2932 89.6236L26.226 89.984ZM22.01 100.896L21.0772 100.536L20.5516 101.896H22.01V100.896ZM34.472 110.436H17.98V112.436H34.472V110.436ZM17.0469 111.077L14.1329 118.641L15.9991 119.359L18.9131 111.795L17.0469 111.077ZM15.066 118H0.186V120H15.066V118ZM1.10228 119.401L20.0743 76.0005L18.2417 75.1995L-0.730277 118.599L1.10228 119.401ZM19.158 76.6H33.542V74.6H19.158V76.6ZM32.6257 76.0005L51.5977 119.401L53.4303 118.599L34.4583 75.1995L32.6257 76.0005ZM52.514 118H37.386V120H52.514V118ZM38.3192 118.641L35.4052 111.077L33.5389 111.795L36.4529 119.359L38.3192 118.641ZM31.3748 100.536L27.1588 89.6236L25.2932 90.3444L29.5092 101.256L31.3748 100.536ZM25.2932 89.6236L21.0772 100.536L22.9428 101.256L27.1588 90.3444L25.2932 89.6236ZM22.01 101.896H30.442V99.896H22.01V101.896ZM98.5558 86.946V87.946H99.5558V86.946H98.5558ZM79.8938 86.946V85.946H78.8938V86.946H79.8938ZM79.8938 119V120H80.8938V119H79.8938ZM65.5098 119H64.5098V120H65.5098V119ZM65.5098 75.6V74.6H64.5098V75.6H65.5098ZM98.5558 75.6H99.5558V74.6H98.5558V75.6ZM98.5558 85.946H79.8938V87.946H98.5558V85.946ZM78.8938 86.946V119H80.8938V86.946H78.8938ZM79.8938 118H65.5098V120H79.8938V118ZM66.5098 119V75.6H64.5098V119H66.5098ZM65.5098 76.6H98.5558V74.6H65.5098V76.6ZM97.5558 75.6V86.946H99.5558V75.6H97.5558ZM143.774 77.584L143.368 78.4978L143.774 77.584ZM150.656 83.288L149.818 83.833L150.656 83.288ZM150.656 100.648L149.818 100.103L150.656 100.648ZM143.774 106.352L143.368 105.438L143.774 106.352ZM127.034 108.336V107.336H126.034V108.336H127.034ZM127.034 119V120H128.034V119H127.034ZM112.402 119H111.402V120H112.402V119ZM112.402 75.6V74.6H111.402V75.6H112.402ZM136.83 95.75L137.489 96.5026L137.497 96.495L137.506 96.4872L136.83 95.75ZM136.83 88.248L136.154 88.9852L136.163 88.993L136.172 89.0006L136.83 88.248ZM127.034 86.884V85.884H126.034V86.884H127.034ZM127.034 97.052H126.034V98.052H127.034V97.052ZM133.296 76.6C137.197 76.6 140.546 77.2435 143.368 78.4978L144.18 76.6702C141.05 75.2792 137.414 74.6 133.296 74.6V76.6ZM143.368 78.4978C146.186 79.7502 148.322 81.5314 149.818 83.833L151.495 82.743C149.767 80.0846 147.314 78.0632 144.18 76.6702L143.368 78.4978ZM149.818 83.833C151.312 86.1321 152.074 88.8312 152.074 91.968H154.074C154.074 88.4915 153.224 85.4039 151.495 82.743L149.818 83.833ZM152.074 91.968C152.074 95.1048 151.312 97.8039 149.818 100.103L151.495 101.193C153.224 98.5321 154.074 95.4445 154.074 91.968H152.074ZM149.818 100.103C148.322 102.405 146.186 104.186 143.368 105.438L144.18 107.266C147.314 105.873 149.767 103.851 151.495 101.193L149.818 100.103ZM143.368 105.438C140.546 106.692 137.197 107.336 133.296 107.336V109.336C137.414 109.336 141.05 108.657 144.18 107.266L143.368 105.438ZM133.296 107.336H127.034V109.336H133.296V107.336ZM126.034 108.336V119H128.034V108.336H126.034ZM127.034 118H112.402V120H127.034V118ZM113.402 119V75.6H111.402V119H113.402ZM112.402 76.6H133.296V74.6H112.402V76.6ZM132.366 98.052C134.474 98.052 136.242 97.5938 137.489 96.5026L136.172 94.9974C135.435 95.6422 134.226 96.052 132.366 96.052V98.052ZM137.506 96.4872C138.745 95.3512 139.318 93.8001 139.318 91.968H137.318C137.318 93.3599 136.899 94.3301 136.154 95.0128L137.506 96.4872ZM139.318 91.968C139.318 90.1375 138.745 88.5949 137.489 87.4954L136.172 89.0006C136.899 89.6371 137.318 90.5745 137.318 91.968H139.318ZM137.506 87.5108C136.258 86.3674 134.484 85.884 132.366 85.884V87.884C134.216 87.884 135.418 88.3099 136.154 88.9852L137.506 87.5108ZM132.366 85.884H127.034V87.884H132.366V85.884ZM126.034 86.884V97.052H128.034V86.884H126.034ZM127.034 98.052H132.366V96.052H127.034V98.052ZM202.584 107.964H203.584V106.964H202.584V107.964ZM202.584 119V120H203.584V119H202.584ZM166.5 119H165.5V120H166.5V119ZM166.5 75.6V74.6H165.5V75.6H166.5ZM201.778 75.6H202.778V74.6H201.778V75.6ZM201.778 86.636V87.636H202.778V86.636H201.778ZM180.884 86.636V85.636H179.884V86.636H180.884ZM180.884 91.72H179.884V92.72H180.884V91.72ZM199.236 91.72H200.236V90.72H199.236V91.72ZM199.236 102.26V103.26H200.236V102.26H199.236ZM180.884 102.26V101.26H179.884V102.26H180.884ZM180.884 107.964H179.884V108.964H180.884V107.964ZM201.584 107.964V119H203.584V107.964H201.584ZM202.584 118H166.5V120H202.584V118ZM167.5 119V75.6H165.5V119H167.5ZM166.5 76.6H201.778V74.6H166.5V76.6ZM200.778 75.6V86.636H202.778V75.6H200.778ZM201.778 85.636H180.884V87.636H201.778V85.636ZM179.884 86.636V91.72H181.884V86.636H179.884ZM180.884 92.72H199.236V90.72H180.884V92.72ZM198.236 91.72V102.26H200.236V91.72H198.236ZM199.236 101.26H180.884V103.26H199.236V101.26ZM179.884 102.26V107.964H181.884V102.26H179.884ZM180.884 108.964H202.584V106.964H180.884V108.964ZM250.555 86.946V87.946H251.555V86.946H250.555ZM231.893 86.946V85.946H230.893V86.946H231.893ZM231.893 119V120H232.893V119H231.893ZM217.509 119H216.509V120H217.509V119ZM217.509 75.6V74.6H216.509V75.6H217.509ZM250.555 75.6H251.555V74.6H250.555V75.6ZM250.555 85.946H231.893V87.946H250.555V85.946ZM230.893 86.946V119H232.893V86.946H230.893ZM231.893 118H217.509V120H231.893V118ZM218.509 119V75.6H216.509V119H218.509ZM217.509 76.6H250.555V74.6H217.509V76.6ZM249.555 75.6V86.946H251.555V75.6H249.555ZM286.371 111.436L287.304 111.077L287.058 110.436H286.371V111.436ZM269.879 111.436V110.436H269.193L268.946 111.077L269.879 111.436ZM266.965 119V120H267.652L267.898 119.359L266.965 119ZM252.085 119L251.169 118.599L250.557 120H252.085V119ZM271.057 75.6V74.6H270.403L270.141 75.1995L271.057 75.6ZM285.441 75.6L286.357 75.1995L286.095 74.6H285.441V75.6ZM304.413 119V120H305.942L305.329 118.599L304.413 119ZM289.285 119L288.352 119.359L288.599 120H289.285V119ZM282.341 100.896V101.896H283.8L283.274 100.536L282.341 100.896ZM278.125 89.984L279.058 89.6236L278.125 87.2093L277.192 89.6236L278.125 89.984ZM273.909 100.896L272.976 100.536L272.451 101.896H273.909V100.896ZM286.371 110.436H269.879V112.436H286.371V110.436ZM268.946 111.077L266.032 118.641L267.898 119.359L270.812 111.795L268.946 111.077ZM266.965 118H252.085V120H266.965V118ZM253.001 119.401L271.973 76.0005L270.141 75.1995L251.169 118.599L253.001 119.401ZM271.057 76.6H285.441V74.6H271.057V76.6ZM284.525 76.0005L303.497 119.401L305.329 118.599L286.357 75.1995L284.525 76.0005ZM304.413 118H289.285V120H304.413V118ZM290.218 118.641L287.304 111.077L285.438 111.795L288.352 119.359L290.218 118.641ZM283.274 100.536L279.058 89.6236L277.192 90.3444L281.408 101.256L283.274 100.536ZM277.192 89.6236L272.976 100.536L274.842 101.256L279.058 90.3444L277.192 89.6236ZM273.909 101.896H282.341V99.896H273.909V101.896ZM352.181 86.946V87.946H353.181V86.946H352.181ZM339.471 86.946V85.946H338.471V86.946H339.471ZM339.471 119V120H340.471V119H339.471ZM325.087 119H324.087V120H325.087V119ZM325.087 86.946H326.087V85.946H325.087V86.946ZM312.377 86.946H311.377V87.946H312.377V86.946ZM312.377 75.6V74.6H311.377V75.6H312.377ZM352.181 75.6H353.181V74.6H352.181V75.6ZM352.181 85.946H339.471V87.946H352.181V85.946ZM338.471 86.946V119H340.471V86.946H338.471ZM339.471 118H325.087V120H339.471V118ZM326.087 119V86.946H324.087V119H326.087ZM325.087 85.946H312.377V87.946H325.087V85.946ZM313.377 86.946V75.6H311.377V86.946H313.377ZM312.377 76.6H352.181V74.6H312.377V76.6ZM351.181 75.6V86.946H353.181V75.6H351.181ZM374.877 117.078L375.34 116.192L374.877 117.078ZM366.135 109.018L365.28 109.537L365.283 109.542L366.135 109.018ZM366.135 85.644L366.987 86.1675L366.99 86.163L366.135 85.644ZM400.049 77.522L400.512 76.6356L400.049 77.522ZM408.791 85.644L407.936 86.163L407.939 86.1675L408.791 85.644ZM408.791 109.018L409.643 109.542L409.646 109.537L408.791 109.018ZM400.049 117.078L400.512 117.964L400.049 117.078ZM392.361 106.848L392.876 107.706L392.883 107.701L392.361 106.848ZM395.895 103.066L396.776 103.54L396.781 103.531L395.895 103.066ZM395.895 91.596L395.01 92.0609L395.015 92.0701L395.895 91.596ZM392.361 87.814L391.829 88.6606L391.843 88.6694L391.857 88.6778L392.361 87.814ZM382.503 87.814L383.018 88.6715L383.025 88.6673L382.503 87.814ZM379.031 91.596L379.912 92.0701L379.917 92.0608L379.031 91.596ZM379.031 103.066L378.146 103.531L378.151 103.54L379.031 103.066ZM382.503 106.848L381.971 107.695L381.985 107.703L381.999 107.712L382.503 106.848ZM387.463 118.992C382.935 118.992 378.902 118.052 375.34 116.192L374.414 117.964C378.293 119.99 382.65 120.992 387.463 120.992V118.992ZM375.34 116.192C371.773 114.329 368.997 111.765 366.987 108.494L365.283 109.542C367.49 113.133 370.541 115.942 374.414 117.964L375.34 116.192ZM366.99 108.499C364.983 105.194 363.973 101.47 363.973 97.3H361.973C361.973 101.81 363.071 105.898 365.28 109.537L366.99 108.499ZM363.973 97.3C363.973 93.1299 364.983 89.4284 366.987 86.1675L365.283 85.1205C363.071 88.7209 361.973 92.7901 361.973 97.3H363.973ZM366.99 86.163C369 82.8522 371.776 80.2696 375.34 78.4084L374.414 76.6356C370.538 78.6598 367.486 81.4917 365.28 85.125L366.99 86.163ZM375.34 78.4084C378.902 76.5485 382.935 75.608 387.463 75.608V73.608C382.65 73.608 378.293 74.6102 374.414 76.6356L375.34 78.4084ZM387.463 75.608C391.991 75.608 396.025 76.5485 399.586 78.4084L400.512 76.6356C396.634 74.6102 392.277 73.608 387.463 73.608V75.608ZM399.586 78.4084C403.15 80.2696 405.926 82.8522 407.936 86.163L409.646 85.125C407.44 81.4917 404.388 78.6598 400.512 76.6356L399.586 78.4084ZM407.939 86.1675C409.943 89.4284 410.953 93.1299 410.953 97.3H412.953C412.953 92.7901 411.855 88.7209 409.643 85.1205L407.939 86.1675ZM410.953 97.3C410.953 101.47 409.943 105.194 407.936 108.499L409.646 109.537C411.855 105.898 412.953 101.81 412.953 97.3H410.953ZM407.939 108.494C405.93 111.765 403.153 114.329 399.586 116.192L400.512 117.964C404.385 115.942 407.437 113.133 409.643 109.542L407.939 108.494ZM399.586 116.192C396.025 118.052 391.991 118.992 387.463 118.992V120.992C392.277 120.992 396.634 119.99 400.512 117.964L399.586 116.192ZM387.463 109.15C389.448 109.15 391.262 108.674 392.876 107.705L391.847 105.991C390.568 106.758 389.115 107.15 387.463 107.15V109.15ZM392.883 107.701C394.529 106.695 395.828 105.3 396.776 103.54L395.015 102.592C394.226 104.056 393.169 105.182 391.84 105.995L392.883 107.701ZM396.781 103.531C397.736 101.711 398.197 99.6246 398.197 97.3H396.197C396.197 99.3568 395.79 101.114 395.01 102.601L396.781 103.531ZM398.197 97.3C398.197 94.9762 397.736 92.9057 396.776 91.1219L395.015 92.0701C395.79 93.5103 396.197 95.2424 396.197 97.3H398.197ZM396.781 91.1312C395.833 89.3262 394.529 87.9207 392.865 86.9502L391.857 88.6778C393.17 89.4433 394.221 90.5591 395.01 92.0608L396.781 91.1312ZM392.893 86.9674C391.277 85.9513 389.457 85.45 387.463 85.45V87.45C389.106 87.45 390.552 87.858 391.829 88.6606L392.893 86.9674ZM387.463 85.45C385.469 85.45 383.634 85.9512 381.982 86.9607L383.025 88.6673C384.349 87.8581 385.82 87.45 387.463 87.45V85.45ZM381.989 86.9565C380.368 87.9288 379.09 89.3333 378.146 91.1312L379.917 92.0608C380.709 90.552 381.745 89.4352 383.018 88.6715L381.989 86.9565ZM378.151 91.1219C377.19 92.9057 376.729 94.9762 376.729 97.3H378.729C378.729 95.2424 379.136 93.5103 379.912 92.0701L378.151 91.1219ZM376.729 97.3C376.729 99.6246 377.19 101.711 378.146 103.531L379.917 102.601C379.136 101.114 378.729 99.3568 378.729 97.3H376.729ZM378.151 103.54C379.095 105.293 380.368 106.687 381.971 107.695L383.035 106.001C381.745 105.191 380.704 104.063 379.912 102.592L378.151 103.54ZM381.999 107.712C383.649 108.674 385.478 109.15 387.463 109.15V107.15C385.811 107.15 384.333 106.758 383.007 105.984L381.999 107.712ZM457.581 77.584L457.175 78.4978L457.581 77.584ZM464.463 83.288L463.625 83.833L464.463 83.288ZM464.463 100.648L463.625 100.103L464.463 100.648ZM457.581 106.352L457.175 105.438L457.581 106.352ZM440.841 108.336V107.336H439.841V108.336H440.841ZM440.841 119V120H441.841V119H440.841ZM426.209 119H425.209V120H426.209V119ZM426.209 75.6V74.6H425.209V75.6H426.209ZM450.637 95.75L451.296 96.5026L451.305 96.495L451.313 96.4872L450.637 95.75ZM450.637 88.248L449.962 88.9852L449.97 88.993L449.979 89.0006L450.637 88.248ZM440.841 86.884V85.884H439.841V86.884H440.841ZM440.841 97.052H439.841V98.052H440.841V97.052ZM447.103 76.6C451.004 76.6 454.353 77.2435 457.175 78.4978L457.987 76.6702C454.858 75.2792 451.221 74.6 447.103 74.6V76.6ZM457.175 78.4978C459.993 79.7502 462.129 81.5314 463.625 83.833L465.302 82.743C463.574 80.0846 461.122 78.0632 457.987 76.6702L457.175 78.4978ZM463.625 83.833C465.119 86.1321 465.881 88.8312 465.881 91.968H467.881C467.881 88.4915 467.031 85.4039 465.302 82.743L463.625 83.833ZM465.881 91.968C465.881 95.1048 465.119 97.8039 463.625 100.103L465.302 101.193C467.031 98.5321 467.881 95.4445 467.881 91.968H465.881ZM463.625 100.103C462.129 102.405 459.993 104.186 457.175 105.438L457.987 107.266C461.122 105.873 463.574 103.851 465.302 101.193L463.625 100.103ZM457.175 105.438C454.353 106.692 451.004 107.336 447.103 107.336V109.336C451.221 109.336 454.858 108.657 457.987 107.266L457.175 105.438ZM447.103 107.336H440.841V109.336H447.103V107.336ZM439.841 108.336V119H441.841V108.336H439.841ZM440.841 118H426.209V120H440.841V118ZM427.209 119V75.6H425.209V119H427.209ZM426.209 76.6H447.103V74.6H426.209V76.6ZM446.173 98.052C448.281 98.052 450.049 97.5938 451.296 96.5026L449.979 94.9974C449.242 95.6422 448.034 96.052 446.173 96.052V98.052ZM451.313 96.4872C452.552 95.3512 453.125 93.8001 453.125 91.968H451.125C451.125 93.3599 450.706 94.3301 449.962 95.0128L451.313 96.4872ZM453.125 91.968C453.125 90.1375 452.552 88.5949 451.296 87.4954L449.979 89.0006C450.706 89.6371 451.125 90.5745 451.125 91.968H453.125ZM451.313 87.5108C450.066 86.3674 448.291 85.884 446.173 85.884V87.884C448.024 87.884 449.225 88.3099 449.962 88.9852L451.313 87.5108ZM446.173 85.884H440.841V87.884H446.173V85.884ZM439.841 86.884V97.052H441.841V86.884H439.841ZM440.841 98.052H446.173V96.052H440.841V98.052ZM516.205 92.588L515.566 93.3571L515.572 93.3624L516.205 92.588ZM515.585 114.97L516.211 115.75L516.216 115.745L515.585 114.97ZM480.307 119H479.307V120H480.307V119ZM480.307 75.6V74.6H479.307V75.6H480.307ZM494.691 75.6H495.691V74.6H494.691V75.6ZM494.691 88.93H493.691V89.93H494.691V88.93ZM504.487 107.406L505.178 108.129L505.186 108.121L505.194 108.113L504.487 107.406ZM494.691 99.16V98.16H493.691V99.16H494.691ZM494.691 108.77H493.691V109.77H494.691V108.77ZM524.575 75.6V74.6H523.575V75.6H524.575ZM538.959 75.6H539.959V74.6H538.959V75.6ZM538.959 119V120H539.959V119H538.959ZM524.575 119H523.575V120H524.575V119ZM503.681 89.93C508.958 89.93 512.873 91.1193 515.566 93.3571L516.844 91.8189C513.667 89.1793 509.233 87.93 503.681 87.93V89.93ZM515.572 93.3624C518.219 95.5245 519.607 98.7602 519.607 103.252H521.607C521.607 98.3198 520.06 94.4462 516.837 91.8136L515.572 93.3624ZM519.607 103.252C519.607 108.095 518.026 111.691 514.953 114.195L516.216 115.745C519.84 112.793 521.607 108.577 521.607 103.252H519.607ZM514.959 114.19C511.843 116.691 507.502 118 501.821 118V120C507.795 120 512.631 118.623 516.211 115.75L514.959 114.19ZM501.821 118H480.307V120H501.821V118ZM481.307 119V75.6H479.307V119H481.307ZM480.307 76.6H494.691V74.6H480.307V76.6ZM493.691 75.6V88.93H495.691V75.6H493.691ZM494.691 89.93H503.681V87.93H494.691V89.93ZM500.829 109.77C502.538 109.77 504.016 109.24 505.178 108.129L503.796 106.683C503.056 107.391 502.096 107.77 500.829 107.77V109.77ZM505.194 108.113C506.373 106.934 506.913 105.354 506.913 103.5H504.913C504.913 104.953 504.501 105.977 503.78 106.699L505.194 108.113ZM506.913 103.5C506.913 101.854 506.423 100.451 505.291 99.4844C504.189 98.5437 502.642 98.16 500.829 98.16V100.16C502.405 100.16 503.4 100.5 503.992 101.006C504.555 101.486 504.913 102.252 504.913 103.5H506.913ZM500.829 98.16H494.691V100.16H500.829V98.16ZM493.691 99.16V108.77H495.691V99.16H493.691ZM494.691 109.77H500.829V107.77H494.691V109.77ZM524.575 76.6H538.959V74.6H524.575V76.6ZM537.959 75.6V119H539.959V75.6H537.959ZM538.959 118H524.575V120H538.959V118ZM525.575 119V75.6H523.575V119H525.575Z" fill="black"/>
</svg>
