<svg width="955" height="116" viewBox="0 0 955 116" fill="none" xmlns="http://www.w3.org/2000/svg">
<path opacity="0.1" d="M12.268 43.14L11.801 44.0243L11.8088 44.0284L12.268 43.14ZM3.588 35.08L2.72862 35.5915L2.73599 35.6035L3.588 35.08ZM3.588 11.582L2.73321 11.063L2.73142 11.066L3.588 11.582ZM12.268 3.522L12.7272 4.41039L12.735 4.40627L12.268 3.522ZM35.952 2.84L35.5416 3.75192V3.75192L35.952 2.84ZM44.136 9.288L44.8019 10.034L45.4934 9.41681L44.9304 8.68055L44.136 9.288ZM34.898 17.534L34.1143 18.1552L34.773 18.9861L35.5639 18.28L34.898 17.534ZM18.034 15.426L18.7563 16.1176L18.7635 16.1099L18.034 15.426ZM18.034 31.236L17.3044 31.92L17.3117 31.9276L18.034 31.236ZM34.898 29.066L35.5639 28.32L34.773 27.6139L34.1143 28.4448L34.898 29.066ZM44.136 37.312L44.9304 37.9194L45.4934 37.1832L44.8019 36.566L44.136 37.312ZM35.952 43.76L35.5416 42.8481L35.952 43.76ZM24.668 44.992C20.2222 44.992 16.2491 44.072 12.7272 42.2516L11.8088 44.0284C15.6442 46.0107 19.9378 46.992 24.668 46.992V44.992ZM12.735 42.2557C9.20914 40.3938 6.45107 37.8294 4.44001 34.5565L2.73599 35.6035C4.94093 39.192 7.96953 42.0009 11.801 44.0243L12.735 42.2557ZM4.44729 34.5685C2.48043 31.2642 1.488 27.517 1.488 23.3H-0.512C-0.512 27.8457 0.562232 31.9518 2.72871 35.5915L4.44729 34.5685ZM1.488 23.3C1.488 19.0829 2.48045 15.3585 4.44458 12.098L2.73142 11.066C0.562214 14.6669 -0.512 18.7545 -0.512 23.3H1.488ZM4.44279 12.101C6.45343 8.78933 9.20846 6.22901 12.7272 4.41036L11.8088 2.63364C7.97021 4.61766 4.93857 7.43067 2.73321 11.063L4.44279 12.101ZM12.735 4.40627C16.2554 2.54719 20.2257 1.608 24.668 1.608V-0.392001C19.9343 -0.392001 15.638 0.611473 11.801 2.63773L12.735 4.40627ZM24.668 1.608C28.7654 1.608 32.3833 2.33067 35.5416 3.75192L36.3624 1.92808C32.9074 0.373324 29.0026 -0.392001 24.668 -0.392001V1.608ZM35.5416 3.75192C38.7009 5.17361 41.2956 7.21991 43.3416 9.89545L44.9304 8.68055C42.6777 5.73475 39.8164 3.48239 36.3624 1.92808L35.5416 3.75192ZM43.4701 8.54197L34.2321 16.788L35.5639 18.28L44.8019 10.034L43.4701 8.54197ZM35.6817 16.9128C32.8453 13.3347 29.4138 11.45 25.412 11.45V13.45C28.6849 13.45 31.5773 14.9547 34.1143 18.1552L35.6817 16.9128ZM25.412 11.45C22.1149 11.45 19.378 12.5303 17.3045 14.7421L18.7635 16.1099C20.41 14.3537 22.5917 13.45 25.412 13.45V11.45ZM17.3117 14.7344C15.2346 16.9039 14.244 19.798 14.244 23.3H16.244C16.244 20.1886 17.1134 17.8335 18.7563 16.1176L17.3117 14.7344ZM14.244 23.3C14.244 26.8028 15.2348 29.7123 17.3045 31.9199L18.7635 30.5521C17.1132 28.7917 16.244 26.4105 16.244 23.3H14.244ZM17.3117 31.9276C19.3869 34.095 22.1216 35.15 25.412 35.15V33.15C22.5851 33.15 20.4011 32.2623 18.7563 30.5444L17.3117 31.9276ZM25.412 35.15C29.4138 35.15 32.8453 33.2653 35.6817 29.6872L34.1143 28.4448C31.5773 31.6453 28.6849 33.15 25.412 33.15V35.15ZM34.2321 29.812L43.4701 38.058L44.8019 36.566L35.5639 28.32L34.2321 29.812ZM43.3416 36.7045C41.2956 39.3801 38.7009 41.4264 35.5416 42.8481L36.3624 44.6719C39.8164 43.1176 42.6777 40.8652 44.9304 37.9194L43.3416 36.7045ZM35.5416 42.8481C32.3833 44.2693 28.7654 44.992 24.668 44.992V46.992C29.0026 46.992 32.9074 46.2267 36.3624 44.6719L35.5416 42.8481ZM66.1247 43.078L66.5876 42.1916L66.1247 43.078ZM57.3827 35.018L56.5279 35.537L56.5307 35.5415L57.3827 35.018ZM57.3827 11.644L58.2347 12.1675L58.2375 12.163L57.3827 11.644ZM91.2967 3.522L91.7596 2.63559L91.2967 3.522ZM100.039 11.644L99.1839 12.163L99.1867 12.1675L100.039 11.644ZM100.039 35.018L100.891 35.5415L100.893 35.537L100.039 35.018ZM91.2967 43.078L91.7596 43.9644L91.2967 43.078ZM83.6087 32.848L84.1232 33.7055L84.1301 33.7013L83.6087 32.848ZM87.1427 29.066L88.0232 29.5401L88.0281 29.5308L87.1427 29.066ZM87.1427 17.596L86.2572 18.0609L86.2622 18.0701L87.1427 17.596ZM83.6087 13.814L83.0765 14.6606L83.0905 14.6694L83.1048 14.6778L83.6087 13.814ZM73.7507 13.814L74.2652 14.6715L74.2721 14.6673L73.7507 13.814ZM70.2787 17.596L71.1592 18.0701L71.1641 18.0608L70.2787 17.596ZM70.2787 29.066L69.3932 29.5309L69.3982 29.5401L70.2787 29.066ZM73.7507 32.848L73.2185 33.6946L73.2325 33.7034L73.2468 33.7118L73.7507 32.848ZM78.7107 44.992C74.1827 44.992 70.1492 44.0515 66.5876 42.1916L65.6618 43.9644C69.5402 45.9898 73.8973 46.992 78.7107 46.992V44.992ZM66.5876 42.1916C63.0206 40.3288 60.244 37.7646 58.2347 34.4945L56.5307 35.5415C58.7373 39.1327 61.7888 41.9418 65.6618 43.9644L66.5876 42.1916ZM58.2375 34.499C56.231 31.1942 55.2207 27.47 55.2207 23.3H53.2207C53.2207 27.81 54.3184 31.8978 56.5279 35.537L58.2375 34.499ZM55.2207 23.3C55.2207 19.1299 56.231 15.4284 58.2347 12.1675L56.5307 11.1205C54.3184 14.7209 53.2207 18.7901 53.2207 23.3H55.2207ZM58.2375 12.163C60.2476 8.85225 63.0237 6.26957 66.5876 4.40841L65.6618 2.63559C61.7857 4.65975 58.7338 7.49175 56.5279 11.125L58.2375 12.163ZM66.5876 4.40841C70.1492 2.54847 74.1827 1.608 78.7107 1.608V-0.392001C73.8973 -0.392001 69.5402 0.61019 65.6618 2.63559L66.5876 4.40841ZM78.7107 1.608C83.2386 1.608 87.2722 2.54847 90.8338 4.40841L91.7596 2.63559C87.8812 0.61019 83.5241 -0.392001 78.7107 -0.392001V1.608ZM90.8338 4.40841C94.3977 6.26957 97.1738 8.85225 99.1839 12.163L100.893 11.125C98.6876 7.49175 95.6357 4.65975 91.7596 2.63559L90.8338 4.40841ZM99.1867 12.1675C101.19 15.4284 102.201 19.1299 102.201 23.3H104.201C104.201 18.7901 103.103 14.7209 100.891 11.1205L99.1867 12.1675ZM102.201 23.3C102.201 27.47 101.19 31.1942 99.1839 34.499L100.893 35.537C103.103 31.8978 104.201 27.81 104.201 23.3H102.201ZM99.1867 34.4945C97.1773 37.7646 94.4008 40.3288 90.8338 42.1916L91.7596 43.9644C95.6326 41.9418 98.6841 39.1327 100.891 35.5415L99.1867 34.4945ZM90.8338 42.1916C87.2722 44.0515 83.2386 44.992 78.7107 44.992V46.992C83.5241 46.992 87.8812 45.9898 91.7596 43.9644L90.8338 42.1916ZM78.7107 35.15C80.6959 35.15 82.509 34.674 84.1232 33.7055L83.0942 31.9905C81.815 32.758 80.3628 33.15 78.7107 33.15V35.15ZM84.1301 33.7013C85.7769 32.6949 87.0755 31.3 88.0232 29.5401L86.2622 28.5919C85.4738 30.056 84.4164 31.1824 83.0872 31.9947L84.1301 33.7013ZM88.0281 29.5308C88.9834 27.7112 89.4447 25.6246 89.4447 23.3H87.4447C87.4447 25.3568 87.038 27.1141 86.2573 28.6012L88.0281 29.5308ZM89.4447 23.3C89.4447 20.9762 88.9837 18.9057 88.0232 17.1219L86.2622 18.0701C87.0377 19.5103 87.4447 21.2424 87.4447 23.3H89.4447ZM88.0281 17.1312C87.0805 15.3262 85.7762 13.9207 84.1126 12.9502L83.1048 14.6778C84.4171 15.4433 85.4689 16.5591 86.2573 18.0608L88.0281 17.1312ZM84.1409 12.9674C82.5244 11.9513 80.705 11.45 78.7107 11.45V13.45C80.3537 13.45 81.7997 13.858 83.0765 14.6606L84.1409 12.9674ZM78.7107 11.45C76.7163 11.45 74.8812 11.9512 73.2292 12.9607L74.2721 14.6673C75.5962 13.8581 77.0678 13.45 78.7107 13.45V11.45ZM73.2362 12.9565C71.6158 13.9288 70.3372 15.3333 69.3933 17.1312L71.1641 18.0608C71.9562 16.552 72.9923 15.4352 74.2652 14.6715L73.2362 12.9565ZM69.3982 17.1219C68.4377 18.9057 67.9767 20.9762 67.9767 23.3H69.9767C69.9767 21.2424 70.3837 19.5103 71.1592 18.0701L69.3982 17.1219ZM67.9767 23.3C67.9767 25.6246 68.438 27.7112 69.3933 29.5308L71.1641 28.6012C70.3834 27.1141 69.9767 25.3568 69.9767 23.3H67.9767ZM69.3982 29.5401C70.3421 31.2931 71.6151 32.6868 73.2185 33.6946L74.2829 32.0014C72.993 31.1906 71.9513 30.0629 71.1592 28.5919L69.3982 29.5401ZM73.2468 33.7118C74.8964 34.674 76.7252 35.15 78.7107 35.15V33.15C77.0588 33.15 75.581 32.758 74.2546 31.9842L73.2468 33.7118ZM145.324 22.432L144.852 21.5502L142.981 22.5509L144.944 23.357L145.324 22.432ZM150.718 26.586L149.9 27.162L149.905 27.1681L149.909 27.1742L150.718 26.586ZM149.788 39.916L149.066 39.2238L149.066 39.2241L149.788 39.916ZM142.038 44.504L142.343 45.4563L142.35 45.4539L142.038 44.504ZM113.208 42.272L112.287 41.8822L111.903 42.7887L112.804 43.1866L113.208 42.272ZM117.486 32.166L117.864 31.2402L116.95 30.8671L116.565 31.7762L117.486 32.166ZM123.81 34.088L123.607 35.0671L123.616 35.069L123.624 35.0707L123.81 34.088ZM135.714 33.716L135.308 32.8021L135.298 32.8065L135.714 33.716ZM121.95 28.198H120.95V29.198H121.95V28.198ZM121.95 17.658V16.658H120.95V17.658H121.95ZM135.218 16.976L134.651 16.152L134.639 16.1606L134.627 16.1696L135.218 16.976ZM134.474 12.574L134.014 13.4618L134.02 13.4651L134.027 13.4684L134.474 12.574ZM124.368 12.45L124.13 11.4787L124.368 12.45ZM118.602 14.558L117.672 14.9248L118.072 15.9409L119.049 15.4524L118.602 14.558ZM114.324 3.708L113.908 2.79844L113.046 3.19255L113.394 4.0748L114.324 3.708ZM140.364 1.972L140.055 2.92313L140.059 2.92428L140.364 1.972ZM148.052 6.498L147.33 7.1899L147.337 7.19758L147.345 7.2051L148.052 6.498ZM149.478 18.65L150.323 19.184L149.478 18.65ZM144.944 23.357C147.105 24.2447 148.742 25.5178 149.9 27.162L151.535 26.01C150.131 24.0169 148.172 22.5207 145.704 21.507L144.944 23.357ZM149.909 27.1742C151.104 28.8166 151.702 30.676 151.702 32.786H153.702C153.702 30.2666 152.977 27.9927 151.527 25.9978L149.909 27.1742ZM151.702 32.786C151.702 35.2479 150.836 37.3787 149.066 39.2238L150.51 40.6082C152.625 38.4026 153.702 35.7801 153.702 32.786H151.702ZM149.066 39.2241C147.303 41.0639 144.873 42.518 141.725 43.5541L142.35 45.4539C145.733 44.3406 148.47 42.7361 150.51 40.6079L149.066 39.2241ZM141.733 43.5517C138.623 44.5485 135.132 45.054 131.25 45.054V47.054C135.304 47.054 139.005 46.5261 142.343 45.4563L141.733 43.5517ZM131.25 45.054C125.063 45.054 119.187 43.8216 113.612 41.3574L112.804 43.1866C118.637 45.7651 124.789 47.054 131.25 47.054V45.054ZM114.129 42.6618L118.407 32.5558L116.565 31.7762L112.287 41.8822L114.129 42.6618ZM117.108 33.0918C119.191 33.9421 121.358 34.6004 123.607 35.0671L124.013 33.1089C121.881 32.6663 119.831 32.0432 117.864 31.2402L117.108 33.0918ZM123.624 35.0707C125.868 35.4939 127.997 35.708 130.01 35.708V33.708C128.138 33.708 126.134 33.5088 123.995 33.1053L123.624 35.0707ZM130.01 35.708C132.446 35.708 134.505 35.3681 136.13 34.6255L135.298 32.8065C134.029 33.3866 132.286 33.708 130.01 33.708V35.708ZM136.12 34.6298C136.968 34.2529 137.68 33.7546 138.182 33.0996C138.694 32.4307 138.946 31.6514 138.946 30.802H136.946C136.946 31.234 136.826 31.5809 136.594 31.8834C136.352 32.1997 135.948 32.5178 135.308 32.8022L136.12 34.6298ZM138.946 30.802C138.946 29.602 138.422 28.6189 137.396 27.9948C136.451 27.4197 135.163 27.198 133.668 27.198V29.198C135.025 29.198 135.875 29.4103 136.356 29.7032C136.757 29.9471 136.946 30.266 136.946 30.802H138.946ZM133.668 27.198H121.95V29.198H133.668V27.198ZM122.95 28.198V17.658H120.95V28.198H122.95ZM121.95 18.658H132.428V16.658H121.95V18.658ZM132.428 18.658C133.761 18.658 134.941 18.4189 135.809 17.7824L134.627 16.1696C134.255 16.4424 133.575 16.658 132.428 16.658V18.658ZM135.784 17.8C136.727 17.1522 137.21 16.1981 137.21 15.054H135.21C135.21 15.5632 135.032 15.8904 134.651 16.152L135.784 17.8ZM137.21 15.054C137.21 14.3256 137.01 13.6471 136.595 13.0545C136.187 12.4718 135.608 12.0228 134.921 11.6796L134.027 13.4684C134.497 13.7038 134.786 13.9575 134.957 14.2015C135.12 14.4355 135.21 14.7077 135.21 15.054H137.21ZM134.934 11.6862C133.624 11.0069 131.959 10.706 130.01 10.706V12.706C131.781 12.706 133.092 12.9837 134.014 13.4618L134.934 11.6862ZM130.01 10.706C128.18 10.706 126.218 10.9673 124.13 11.4787L124.606 13.4213C126.568 12.9407 128.368 12.706 130.01 12.706V10.706ZM124.13 11.4787C122.034 11.992 120.042 12.72 118.155 13.6636L119.049 15.4524C120.799 14.5773 122.651 13.9 124.606 13.4213L124.13 11.4787ZM119.532 14.1912L115.254 3.3412L113.394 4.0748L117.672 14.9248L119.532 14.1912ZM114.739 4.61756C119.395 2.49039 124.46 1.422 129.948 1.422V-0.578002C124.193 -0.578002 118.842 0.544275 113.908 2.79844L114.739 4.61756ZM129.948 1.422C133.617 1.422 136.984 1.92591 140.055 2.92312L140.673 1.02087C137.379 -0.0485826 133.801 -0.578002 129.948 -0.578002V1.422ZM140.059 2.92428C143.161 3.91847 145.567 5.35081 147.33 7.1899L148.774 5.80609C146.734 3.67719 144.015 2.09219 140.669 1.01972L140.059 2.92428ZM147.345 7.2051C149.108 8.96831 149.966 11.0111 149.966 13.38H151.966C151.966 10.4582 150.881 7.91302 148.759 5.79089L147.345 7.2051ZM149.966 13.38C149.966 15.1427 149.519 16.7127 148.632 18.116L150.323 19.184C151.421 17.446 151.966 15.5026 151.966 13.38H149.966ZM148.632 18.116C147.741 19.5281 146.49 20.674 144.852 21.5502L145.796 23.3138C147.712 22.2886 149.231 20.9133 150.323 19.184L148.632 18.116ZM215.562 33.654H216.562V32.654H215.562V33.654ZM215.562 53.494V54.494H216.562V53.494H215.562ZM202.17 53.494H201.17V54.494H202.17V53.494ZM202.17 45H203.17V44H202.17V45ZM177.494 45V44H176.494V45H177.494ZM177.494 53.494V54.494H178.494V53.494H177.494ZM164.102 53.494H163.102V54.494H164.102V53.494ZM164.102 33.654V32.654H163.102V33.654H164.102ZM170.674 28.88L169.723 28.5712L170.674 28.88ZM172.658 14.806L173.657 14.8526L173.657 14.8435L172.658 14.806ZM173.154 1.6V0.599997H172.191L172.155 1.56246L173.154 1.6ZM209.858 1.6H210.858V0.599997H209.858V1.6ZM209.858 33.654H208.858V34.654H209.858V33.654ZM185.368 16.046L184.369 16.006L184.369 16.0064L185.368 16.046ZM184.376 26.71L185.362 26.879L185.362 26.8766L184.376 26.71ZM182.082 33.654L181.223 33.1425L180.323 34.654H182.082V33.654ZM195.474 33.654V34.654H196.474V33.654H195.474ZM195.474 12.946H196.474V11.946H195.474V12.946ZM185.492 12.946V11.946H184.531L184.493 12.906L185.492 12.946ZM214.562 33.654V53.494H216.562V33.654H214.562ZM215.562 52.494H202.17V54.494H215.562V52.494ZM203.17 53.494V45H201.17V53.494H203.17ZM202.17 44H177.494V46H202.17V44ZM176.494 45V53.494H178.494V45H176.494ZM177.494 52.494H164.102V54.494H177.494V52.494ZM165.102 53.494V33.654H163.102V53.494H165.102ZM164.102 34.654H165.342V32.654H164.102V34.654ZM165.342 34.654C166.834 34.654 168.15 34.1753 169.233 33.2055C170.296 32.254 171.075 30.8838 171.625 29.1888L169.723 28.5712C169.24 30.0588 168.614 31.0757 167.899 31.7155C167.205 32.337 166.372 32.654 165.342 32.654V34.654ZM171.625 29.1888C172.7 25.8775 173.366 21.0796 173.657 14.8526L171.659 14.7594C171.371 20.9324 170.715 25.5172 169.723 28.5712L171.625 29.1888ZM173.657 14.8435L174.153 1.63753L172.155 1.56246L171.659 14.7685L173.657 14.8435ZM173.154 2.6H209.858V0.599997H173.154V2.6ZM208.858 1.6V33.654H210.858V1.6H208.858ZM209.858 34.654H215.562V32.654H209.858V34.654ZM184.369 16.0064C184.205 20.1541 183.877 23.6637 183.39 26.5434L185.362 26.8766C185.867 23.887 186.201 20.2873 186.367 16.0856L184.369 16.0064ZM183.391 26.541C182.907 29.3634 182.172 31.5482 181.223 33.1425L182.941 34.1655C184.059 32.2878 184.854 29.8432 185.362 26.879L183.391 26.541ZM182.082 34.654H195.474V32.654H182.082V34.654ZM196.474 33.654V12.946H194.474V33.654H196.474ZM195.474 11.946H185.492V13.946H195.474V11.946ZM184.493 12.906L184.369 16.006L186.367 16.086L186.491 12.986L184.493 12.906ZM260.7 37.436L261.633 37.0765L261.386 36.436H260.7V37.436ZM244.208 37.436V36.436H243.521L243.274 37.0765L244.208 37.436ZM241.294 45V46H241.98L242.227 45.3595L241.294 45ZM226.414 45L225.497 44.5995L224.885 46H226.414V45ZM245.386 1.6V0.599997H244.731L244.469 1.19945L245.386 1.6ZM259.77 1.6L260.686 1.19945L260.424 0.599997H259.77V1.6ZM278.742 45V46H280.27L279.658 44.5995L278.742 45ZM263.614 45L262.68 45.3595L262.927 46H263.614V45ZM256.67 26.896V27.896H258.128L257.602 26.5356L256.67 26.896ZM252.454 15.984L253.386 15.6236L252.454 13.2093L251.521 15.6236L252.454 15.984ZM248.238 26.896L247.305 26.5356L246.779 27.896H248.238V26.896ZM260.7 36.436H244.208V38.436H260.7V36.436ZM243.274 37.0765L240.36 44.6405L242.227 45.3595L245.141 37.7955L243.274 37.0765ZM241.294 44H226.414V46H241.294V44ZM227.33 45.4005L246.302 2.00054L244.469 1.19945L225.497 44.5995L227.33 45.4005ZM245.386 2.6H259.77V0.599997H245.386V2.6ZM258.853 2.00054L277.825 45.4005L279.658 44.5995L260.686 1.19945L258.853 2.00054ZM278.742 44H263.614V46H278.742V44ZM264.547 44.6405L261.633 37.0765L259.766 37.7955L262.68 45.3595L264.547 44.6405ZM257.602 26.5356L253.386 15.6236L251.521 16.3444L255.737 27.2564L257.602 26.5356ZM251.521 15.6236L247.305 26.5356L249.17 27.2564L253.386 16.3444L251.521 15.6236ZM248.238 27.896H256.67V25.896H248.238V27.896ZM334.517 1.6H335.517V0.599997H334.517V1.6ZM334.517 45V46H335.517V45H334.517ZM319.885 45H318.885V46H319.885V45ZM319.885 29.004H320.885V28.004H319.885V29.004ZM306.369 29.004V28.004H305.369V29.004H306.369ZM306.369 45V46H307.369V45H306.369ZM291.737 45H290.737V46H291.737V45ZM291.737 1.6V0.599997H290.737V1.6H291.737ZM306.369 1.6H307.369V0.599997H306.369V1.6ZM306.369 16.976H305.369V17.976H306.369V16.976ZM319.885 16.976V17.976H320.885V16.976H319.885ZM319.885 1.6V0.599997H318.885V1.6H319.885ZM333.517 1.6V45H335.517V1.6H333.517ZM334.517 44H319.885V46H334.517V44ZM320.885 45V29.004H318.885V45H320.885ZM319.885 28.004H306.369V30.004H319.885V28.004ZM305.369 29.004V45H307.369V29.004H305.369ZM306.369 44H291.737V46H306.369V44ZM292.737 45V1.6H290.737V45H292.737ZM291.737 2.6H306.369V0.599997H291.737V2.6ZM305.369 1.6V16.976H307.369V1.6H305.369ZM306.369 17.976H319.885V15.976H306.369V17.976ZM320.885 16.976V1.6H318.885V16.976H320.885ZM319.885 2.6H334.517V0.599997H319.885V2.6ZM351.223 1.6V0.599997H350.223V1.6H351.223ZM365.607 1.6H366.607V0.599997H365.607V1.6ZM365.607 24.168H364.607V27.4898L366.441 24.7201L365.607 24.168ZM380.549 1.6V0.599997H380.012L379.716 1.04794L380.549 1.6ZM394.313 1.6H395.313V0.599997H394.313V1.6ZM394.313 45V46H395.313V45H394.313ZM379.929 45H378.929V46H379.929V45ZM379.929 22.494H380.929V19.1683L379.095 21.9425L379.929 22.494ZM365.049 45V46H365.587L365.884 45.5515L365.049 45ZM351.223 45H350.223V46H351.223V45ZM351.223 2.6H365.607V0.599997H351.223V2.6ZM364.607 1.6V24.168H366.607V1.6H364.607ZM366.441 24.7201L381.383 2.15205L379.716 1.04794L364.774 23.6159L366.441 24.7201ZM380.549 2.6H394.313V0.599997H380.549V2.6ZM393.313 1.6V45H395.313V1.6H393.313ZM394.313 44H379.929V46H394.313V44ZM380.929 45V22.494H378.929V45H380.929ZM379.095 21.9425L364.215 44.4485L365.884 45.5515L380.764 23.0455L379.095 21.9425ZM365.049 44H351.223V46H365.049V44ZM352.223 45V1.6H350.223V45H352.223ZM447.096 33.964H448.096V32.964H447.096V33.964ZM447.096 45V46H448.096V45H447.096ZM411.012 45H410.012V46H411.012V45ZM411.012 1.6V0.599997H410.012V1.6H411.012ZM446.29 1.6H447.29V0.599997H446.29V1.6ZM446.29 12.636V13.636H447.29V12.636H446.29ZM425.396 12.636V11.636H424.396V12.636H425.396ZM425.396 17.72H424.396V18.72H425.396V17.72ZM443.748 17.72H444.748V16.72H443.748V17.72ZM443.748 28.26V29.26H444.748V28.26H443.748ZM425.396 28.26V27.26H424.396V28.26H425.396ZM425.396 33.964H424.396V34.964H425.396V33.964ZM446.096 33.964V45H448.096V33.964H446.096ZM447.096 44H411.012V46H447.096V44ZM412.012 45V1.6H410.012V45H412.012ZM411.012 2.6H446.29V0.599997H411.012V2.6ZM445.29 1.6V12.636H447.29V1.6H445.29ZM446.29 11.636H425.396V13.636H446.29V11.636ZM424.396 12.636V17.72H426.396V12.636H424.396ZM425.396 18.72H443.748V16.72H425.396V18.72ZM442.748 17.72V28.26H444.748V17.72H442.748ZM443.748 27.26H425.396V29.26H443.748V27.26ZM424.396 28.26V33.964H426.396V28.26H424.396ZM425.396 34.964H447.096V32.964H425.396V34.964ZM499.024 43.14L498.557 44.0243L498.565 44.0284L499.024 43.14ZM490.344 35.08L489.484 35.5915L489.492 35.6035L490.344 35.08ZM490.344 11.582L489.489 11.063L489.487 11.066L490.344 11.582ZM499.024 3.522L499.483 4.41039L499.491 4.40627L499.024 3.522ZM522.708 2.84L522.297 3.75192V3.75192L522.708 2.84ZM530.892 9.288L531.558 10.034L532.249 9.41681L531.686 8.68055L530.892 9.288ZM521.654 17.534L520.87 18.1552L521.529 18.9861L522.32 18.28L521.654 17.534ZM504.79 15.426L505.512 16.1176L505.519 16.1099L504.79 15.426ZM504.79 31.236L504.06 31.92L504.067 31.9276L504.79 31.236ZM521.654 29.066L522.32 28.32L521.529 27.6139L520.87 28.4448L521.654 29.066ZM530.892 37.312L531.686 37.9194L532.249 37.1832L531.558 36.566L530.892 37.312ZM522.708 43.76L522.297 42.8481L522.708 43.76ZM511.424 44.992C506.978 44.992 503.005 44.072 499.483 42.2516L498.565 44.0284C502.4 46.0107 506.693 46.992 511.424 46.992V44.992ZM499.491 42.2557C495.965 40.3938 493.207 37.8294 491.196 34.5565L489.492 35.6035C491.697 39.192 494.725 42.0009 498.557 44.0243L499.491 42.2557ZM491.203 34.5685C489.236 31.2642 488.244 27.517 488.244 23.3H486.244C486.244 27.8457 487.318 31.9518 489.484 35.5915L491.203 34.5685ZM488.244 23.3C488.244 19.0829 489.236 15.3585 491.2 12.098L489.487 11.066C487.318 14.6669 486.244 18.7545 486.244 23.3H488.244ZM491.198 12.101C493.209 8.78933 495.964 6.22901 499.483 4.41036L498.565 2.63364C494.726 4.61766 491.694 7.43067 489.489 11.063L491.198 12.101ZM499.491 4.40627C503.011 2.54719 506.981 1.608 511.424 1.608V-0.392001C506.69 -0.392001 502.394 0.611473 498.557 2.63773L499.491 4.40627ZM511.424 1.608C515.521 1.608 519.139 2.33067 522.297 3.75192L523.118 1.92808C519.663 0.373324 515.758 -0.392001 511.424 -0.392001V1.608ZM522.297 3.75192C525.457 5.17361 528.051 7.21991 530.097 9.89545L531.686 8.68055C529.433 5.73475 526.572 3.48239 523.118 1.92808L522.297 3.75192ZM530.226 8.54197L520.988 16.788L522.32 18.28L531.558 10.034L530.226 8.54197ZM522.437 16.9128C519.601 13.3347 516.169 11.45 512.168 11.45V13.45C515.441 13.45 518.333 14.9547 520.87 18.1552L522.437 16.9128ZM512.168 11.45C508.871 11.45 506.134 12.5303 504.06 14.7421L505.519 16.1099C507.166 14.3537 509.347 13.45 512.168 13.45V11.45ZM504.067 14.7344C501.99 16.9039 501 19.798 501 23.3H503C503 20.1886 503.869 17.8335 505.512 16.1176L504.067 14.7344ZM501 23.3C501 26.8028 501.99 29.7123 504.06 31.9199L505.519 30.5521C503.869 28.7917 503 26.4105 503 23.3H501ZM504.067 31.9276C506.143 34.095 508.877 35.15 512.168 35.15V33.15C509.341 33.15 507.157 32.2623 505.512 30.5444L504.067 31.9276ZM512.168 35.15C516.169 35.15 519.601 33.2653 522.437 29.6872L520.87 28.4448C518.333 31.6453 515.441 33.15 512.168 33.15V35.15ZM520.988 29.812L530.226 38.058L531.558 36.566L522.32 28.32L520.988 29.812ZM530.097 36.7045C528.051 39.3801 525.457 41.4264 522.297 42.8481L523.118 44.6719C526.572 43.1176 529.433 40.8652 531.686 37.9194L530.097 36.7045ZM522.297 42.8481C519.139 44.2693 515.521 44.992 511.424 44.992V46.992C515.758 46.992 519.663 46.2267 523.118 44.6719L522.297 42.8481ZM585.68 1.6H586.68V0.599997H585.68V1.6ZM585.68 45V46H586.68V45H585.68ZM571.296 45H570.296V46H571.296V45ZM571.296 12.946H572.296V11.946H571.296V12.946ZM561.376 12.946V11.946H560.4L560.376 12.9213L561.376 12.946ZM561.252 17.968L562.252 17.9947L562.252 17.9927L561.252 17.968ZM559.764 33.22L560.743 33.424L559.764 33.22ZM555.424 42.52L556.151 43.2062L556.158 43.1994L555.424 42.52ZM540.358 45L539.36 44.9366L539.307 45.7718L540.12 45.9712L540.358 45ZM541.102 33.282L541.327 32.3076L540.179 32.0426L540.104 33.2186L541.102 33.282ZM546.186 31.608L545.354 31.0533L545.347 31.063L545.341 31.0729L546.186 31.608ZM547.86 26.648L548.85 26.7866L547.86 26.648ZM548.48 18.526L549.479 18.563L549.479 18.5589L548.48 18.526ZM549.038 1.6V0.599997H548.07L548.038 1.56705L549.038 1.6ZM584.68 1.6V45H586.68V1.6H584.68ZM585.68 44H571.296V46H585.68V44ZM572.296 45V12.946H570.296V45H572.296ZM571.296 11.946H561.376V13.946H571.296V11.946ZM560.376 12.9213L560.252 17.9433L562.252 17.9927L562.376 12.9707L560.376 12.9213ZM560.252 17.9413C560.088 24.1095 559.595 29.1284 558.785 33.016L560.743 33.424C561.586 29.3756 562.085 24.2265 562.252 17.9947L560.252 17.9413ZM558.785 33.016C557.983 36.8636 556.599 39.7792 554.69 41.8406L556.158 43.1994C558.382 40.7968 559.891 37.5124 560.743 33.424L558.785 33.016ZM554.696 41.8338C552.868 43.7723 550.207 44.806 546.558 44.806V46.806C550.597 46.806 553.847 45.649 556.151 43.2062L554.696 41.8338ZM546.558 44.806C544.707 44.806 542.721 44.55 540.596 44.0288L540.12 45.9712C542.376 46.5247 544.523 46.806 546.558 46.806V44.806ZM541.356 45.0634L542.1 33.3454L540.104 33.2186L539.36 44.9366L541.356 45.0634ZM540.877 34.2564C541.486 34.397 542.099 34.468 542.714 34.468V32.468C542.254 32.468 541.792 32.415 541.327 32.3076L540.877 34.2564ZM542.714 34.468C544.568 34.468 546.053 33.6869 547.031 32.1431L545.341 31.0729C544.748 32.0091 543.918 32.468 542.714 32.468V34.468ZM547.018 32.1627C547.954 30.758 548.548 28.9463 548.85 26.7866L546.87 26.5094C546.593 28.483 546.071 29.978 545.354 31.0533L547.018 32.1627ZM548.85 26.7866C549.146 24.6724 549.355 21.9273 549.479 18.563L547.481 18.489C547.357 21.8207 547.152 24.4903 546.87 26.5094L548.85 26.7866ZM549.479 18.5589L550.037 1.63295L548.038 1.56705L547.48 18.493L549.479 18.5589ZM549.038 2.6H585.68V0.599997H549.038V2.6ZM611.822 43.078L612.284 42.1916L611.822 43.078ZM603.08 35.018L602.225 35.537L602.228 35.5415L603.08 35.018ZM603.08 11.644L603.932 12.1675L603.934 12.163L603.08 11.644ZM636.994 3.522L637.456 2.63559L636.994 3.522ZM645.736 11.644L644.881 12.163L644.884 12.1675L645.736 11.644ZM645.736 35.018L646.588 35.5415L646.59 35.537L645.736 35.018ZM636.994 43.078L637.456 43.9644L636.994 43.078ZM629.306 32.848L629.82 33.7055L629.827 33.7013L629.306 32.848ZM632.84 29.066L633.72 29.5401L633.725 29.5308L632.84 29.066ZM632.84 17.596L631.954 18.0609L631.959 18.0701L632.84 17.596ZM629.306 13.814L628.773 14.6606L628.787 14.6694L628.802 14.6778L629.306 13.814ZM619.448 13.814L619.962 14.6715L619.969 14.6673L619.448 13.814ZM615.976 17.596L616.856 18.0701L616.861 18.0608L615.976 17.596ZM615.976 29.066L615.09 29.5309L615.095 29.5401L615.976 29.066ZM619.448 32.848L618.915 33.6946L618.929 33.7034L618.944 33.7118L619.448 32.848ZM624.408 44.992C619.88 44.992 615.846 44.0515 612.284 42.1916L611.359 43.9644C615.237 45.9898 619.594 46.992 624.408 46.992V44.992ZM612.284 42.1916C608.718 40.3288 605.941 37.7646 603.932 34.4945L602.228 35.5415C604.434 39.1327 607.486 41.9418 611.359 43.9644L612.284 42.1916ZM603.934 34.499C601.928 31.1942 600.918 27.47 600.918 23.3H598.918C598.918 27.81 600.015 31.8978 602.225 35.537L603.934 34.499ZM600.918 23.3C600.918 19.1299 601.928 15.4284 603.932 12.1675L602.228 11.1205C600.015 14.7209 598.918 18.7901 598.918 23.3H600.918ZM603.934 12.163C605.944 8.85225 608.721 6.26957 612.284 4.40841L611.359 2.63559C607.483 4.65975 604.431 7.49175 602.225 11.125L603.934 12.163ZM612.284 4.40841C615.846 2.54847 619.88 1.608 624.408 1.608V-0.392001C619.594 -0.392001 615.237 0.61019 611.359 2.63559L612.284 4.40841ZM624.408 1.608C628.936 1.608 632.969 2.54847 636.531 4.40841L637.456 2.63559C633.578 0.61019 629.221 -0.392001 624.408 -0.392001V1.608ZM636.531 4.40841C640.095 6.26957 642.871 8.85225 644.881 12.163L646.59 11.125C644.384 7.49175 641.333 4.65975 637.456 2.63559L636.531 4.40841ZM644.884 12.1675C646.887 15.4284 647.898 19.1299 647.898 23.3H649.898C649.898 18.7901 648.8 14.7209 646.588 11.1205L644.884 12.1675ZM647.898 23.3C647.898 27.47 646.887 31.1942 644.881 34.499L646.59 35.537C648.8 31.8978 649.898 27.81 649.898 23.3H647.898ZM644.884 34.4945C642.874 37.7646 640.098 40.3288 636.531 42.1916L637.456 43.9644C641.33 41.9418 644.381 39.1327 646.588 35.5415L644.884 34.4945ZM636.531 42.1916C632.969 44.0515 628.936 44.992 624.408 44.992V46.992C629.221 46.992 633.578 45.9898 637.456 43.9644L636.531 42.1916ZM624.408 35.15C626.393 35.15 628.206 34.674 629.82 33.7055L628.791 31.9905C627.512 32.758 626.06 33.15 624.408 33.15V35.15ZM629.827 33.7013C631.474 32.6949 632.772 31.3 633.72 29.5401L631.959 28.5919C631.171 30.056 630.113 31.1824 628.784 31.9947L629.827 33.7013ZM633.725 29.5308C634.68 27.7112 635.142 25.6246 635.142 23.3H633.142C633.142 25.3568 632.735 27.1141 631.954 28.6012L633.725 29.5308ZM635.142 23.3C635.142 20.9762 634.681 18.9057 633.72 17.1219L631.959 18.0701C632.735 19.5103 633.142 21.2424 633.142 23.3H635.142ZM633.725 17.1312C632.777 15.3262 631.473 13.9207 629.809 12.9502L628.802 14.6778C630.114 15.4433 631.166 16.5591 631.954 18.0608L633.725 17.1312ZM629.838 12.9674C628.221 11.9513 626.402 11.45 624.408 11.45V13.45C626.051 13.45 627.497 13.858 628.773 14.6606L629.838 12.9674ZM624.408 11.45C622.413 11.45 620.578 11.9512 618.926 12.9607L619.969 14.6673C621.293 13.8581 622.765 13.45 624.408 13.45V11.45ZM618.933 12.9565C617.313 13.9288 616.034 15.3333 615.09 17.1312L616.861 18.0608C617.653 16.552 618.689 15.4352 619.962 14.6715L618.933 12.9565ZM615.095 17.1219C614.135 18.9057 613.674 20.9762 613.674 23.3H615.674C615.674 21.2424 616.081 19.5103 616.856 18.0701L615.095 17.1219ZM613.674 23.3C613.674 25.6246 614.135 27.7112 615.09 29.5308L616.861 28.6012C616.08 27.1141 615.674 25.3568 615.674 23.3H613.674ZM615.095 29.5401C616.039 31.2931 617.312 32.6868 618.915 33.6946L619.98 32.0014C618.69 31.1906 617.648 30.0629 616.856 28.5919L615.095 29.5401ZM618.944 33.7118C620.593 34.674 622.422 35.15 624.408 35.15V33.15C622.756 33.15 621.278 32.758 619.951 31.9842L618.944 33.7118ZM704.049 29.314L704.958 28.8972L704.691 28.314H704.049V29.314ZM700.267 29.314V28.314H699.267V29.314H700.267ZM700.267 45V46H701.267V45H700.267ZM686.007 45H685.007V46H686.007V45ZM686.007 29.314H687.007V28.314H686.007V29.314ZM682.102 29.314V28.314H681.46L681.192 28.8972L682.102 29.314ZM674.909 45V46H675.551L675.818 45.4168L674.909 45ZM658.107 45L657.217 44.5451L656.474 46H658.107V45ZM669.763 22.184L670.654 22.6389L670.892 22.1728L670.645 21.7115L669.763 22.184ZM658.727 1.6V0.599997H657.057L657.846 2.07251L658.727 1.6ZM673.979 1.6L674.881 1.16805L674.609 0.599997H673.979V1.6ZM681.729 17.782L680.828 18.2139L681.1 18.782H681.729V17.782ZM686.007 17.782V18.782H687.007V17.782H686.007ZM686.007 1.6V0.599997H685.007V1.6H686.007ZM700.267 1.6H701.267V0.599997H700.267V1.6ZM700.267 17.782H699.267V18.782H700.267V17.782ZM704.297 17.782V18.782H704.923L705.197 18.2195L704.297 17.782ZM712.171 1.6V0.599997H711.546L711.272 1.16246L712.171 1.6ZM727.423 1.6L728.306 2.07045L729.09 0.599997H727.423V1.6ZM716.449 22.184L715.567 21.7135L715.322 22.1729L715.558 22.637L716.449 22.184ZM728.043 45V46H729.673L728.935 44.547L728.043 45ZM711.241 45L710.332 45.4168L710.6 46H711.241V45ZM704.049 28.314H700.267V30.314H704.049V28.314ZM699.267 29.314V45H701.267V29.314H699.267ZM700.267 44H686.007V46H700.267V44ZM687.007 45V29.314H685.007V45H687.007ZM686.007 28.314H682.102V30.314H686.007V28.314ZM681.192 28.8972L674 44.5832L675.818 45.4168L683.01 29.7308L681.192 28.8972ZM674.909 44H658.107V46H674.909V44ZM658.998 45.4549L670.654 22.6389L668.873 21.7291L657.217 44.5451L658.998 45.4549ZM670.645 21.7115L659.609 1.12748L657.846 2.07251L668.882 22.6565L670.645 21.7115ZM658.727 2.6H673.979V0.599997H658.727V2.6ZM673.078 2.03194L680.828 18.2139L682.631 17.3501L674.881 1.16805L673.078 2.03194ZM681.729 18.782H686.007V16.782H681.729V18.782ZM687.007 17.782V1.6H685.007V17.782H687.007ZM686.007 2.6H700.267V0.599997H686.007V2.6ZM699.267 1.6V17.782H701.267V1.6H699.267ZM700.267 18.782H704.297V16.782H700.267V18.782ZM705.197 18.2195L713.071 2.03754L711.272 1.16246L703.398 17.3445L705.197 18.2195ZM712.171 2.6H727.423V0.599997H712.171V2.6ZM726.541 1.12955L715.567 21.7135L717.332 22.6544L728.306 2.07045L726.541 1.12955ZM715.558 22.637L727.152 45.453L728.935 44.547L717.341 21.731L715.558 22.637ZM728.043 44H711.241V46H728.043V44ZM712.151 44.5832L704.958 28.8972L703.14 29.7308L710.332 45.4168L712.151 44.5832ZM782.797 1.6H783.797V0.599997H782.797V1.6ZM782.797 45V46H783.797V45H782.797ZM768.165 45H767.165V46H768.165V45ZM768.165 29.004H769.165V28.004H768.165V29.004ZM754.649 29.004V28.004H753.649V29.004H754.649ZM754.649 45V46H755.649V45H754.649ZM740.017 45H739.017V46H740.017V45ZM740.017 1.6V0.599997H739.017V1.6H740.017ZM754.649 1.6H755.649V0.599997H754.649V1.6ZM754.649 16.976H753.649V17.976H754.649V16.976ZM768.165 16.976V17.976H769.165V16.976H768.165ZM768.165 1.6V0.599997H767.165V1.6H768.165ZM781.797 1.6V45H783.797V1.6H781.797ZM782.797 44H768.165V46H782.797V44ZM769.165 45V29.004H767.165V45H769.165ZM768.165 28.004H754.649V30.004H768.165V28.004ZM753.649 29.004V45H755.649V29.004H753.649ZM754.649 44H740.017V46H754.649V44ZM741.017 45V1.6H739.017V45H741.017ZM740.017 2.6H754.649V0.599997H740.017V2.6ZM753.649 1.6V16.976H755.649V1.6H753.649ZM754.649 17.976H768.165V15.976H754.649V17.976ZM769.165 16.976V1.6H767.165V16.976H769.165ZM768.165 2.6H782.797V0.599997H768.165V2.6ZM835.401 18.588L834.762 19.3571L834.768 19.3624L835.401 18.588ZM834.781 40.97L835.407 41.75L835.412 41.7452L834.781 40.97ZM799.503 45H798.503V46H799.503V45ZM799.503 1.6V0.599997H798.503V1.6H799.503ZM813.887 1.6H814.887V0.599997H813.887V1.6ZM813.887 14.93H812.887V15.93H813.887V14.93ZM823.683 33.406L824.374 34.1286L824.382 34.121L824.39 34.1131L823.683 33.406ZM813.887 25.16V24.16H812.887V25.16H813.887ZM813.887 34.77H812.887V35.77H813.887V34.77ZM843.771 1.6V0.599997H842.771V1.6H843.771ZM858.155 1.6H859.155V0.599997H858.155V1.6ZM858.155 45V46H859.155V45H858.155ZM843.771 45H842.771V46H843.771V45ZM822.877 15.93C828.154 15.93 832.069 17.1193 834.762 19.3571L836.04 17.8189C832.864 15.1793 828.429 13.93 822.877 13.93V15.93ZM834.768 19.3624C837.415 21.5245 838.803 24.7602 838.803 29.252H840.803C840.803 24.3198 839.256 20.4462 836.033 17.8136L834.768 19.3624ZM838.803 29.252C838.803 34.0947 837.222 37.6912 834.149 40.1948L835.412 41.7452C839.036 38.7928 840.803 34.5773 840.803 29.252H838.803ZM834.155 40.1901C831.039 42.6908 826.698 44 821.017 44V46C826.991 46 831.827 44.6226 835.407 41.7499L834.155 40.1901ZM821.017 44H799.503V46H821.017V44ZM800.503 45V1.6H798.503V45H800.503ZM799.503 2.6H813.887V0.599997H799.503V2.6ZM812.887 1.6V14.93H814.887V1.6H812.887ZM813.887 15.93H822.877V13.93H813.887V15.93ZM820.025 35.77C821.734 35.77 823.212 35.2397 824.374 34.1286L822.992 32.6834C822.252 33.3909 821.292 33.77 820.025 33.77V35.77ZM824.39 34.1131C825.569 32.9336 826.109 31.3538 826.109 29.5H824.109C824.109 30.9528 823.698 31.977 822.976 32.6989L824.39 34.1131ZM826.109 29.5C826.109 27.8542 825.619 26.4511 824.487 25.4844C823.385 24.5437 821.838 24.16 820.025 24.16V26.16C821.601 26.16 822.596 26.4997 823.189 27.0056C823.751 27.4856 824.109 28.2525 824.109 29.5H826.109ZM820.025 24.16H813.887V26.16H820.025V24.16ZM812.887 25.16V34.77H814.887V25.16H812.887ZM813.887 35.77H820.025V33.77H813.887V35.77ZM843.771 2.6H858.155V0.599997H843.771V2.6ZM857.155 1.6V45H859.155V1.6H857.155ZM858.155 44H843.771V46H858.155V44ZM844.771 45V1.6H842.771V45H844.771ZM888.864 1.538L889.715 1.01218L889.422 0.537998H888.864V1.538ZM895.188 11.768L894.338 12.2938L895.188 13.6698L896.039 12.2938L895.188 11.768ZM901.512 1.538V0.537998H900.955L900.662 1.01218L901.512 1.538ZM918.438 1.538L919.265 2.1001L920.327 0.537998H918.438V1.538ZM904.364 22.246L903.537 21.6839L903.156 22.2444L903.536 22.8059L904.364 22.246ZM919.74 45V46H921.623L920.569 44.4401L919.74 45ZM902.504 45L901.667 45.5461L901.962 46H902.504V45ZM895.188 33.778L896.026 33.2319L895.181 31.9359L894.346 33.2384L895.188 33.778ZM887.996 45V46H888.543L888.838 45.5396L887.996 45ZM871.194 45L870.371 44.4315L869.288 46H871.194V45ZM886.446 22.928L887.269 23.4965L887.656 22.9369L887.277 22.3716L886.446 22.928ZM872.124 1.538V0.537998H870.251L871.293 2.09436L872.124 1.538ZM888.014 2.06382L894.338 12.2938L896.039 11.2422L889.715 1.01218L888.014 2.06382ZM896.039 12.2938L902.363 2.06382L900.662 1.01218L894.338 11.2422L896.039 12.2938ZM901.512 2.538H918.438V0.537998H901.512V2.538ZM917.611 0.975891L903.537 21.6839L905.191 22.8081L919.265 2.1001L917.611 0.975891ZM903.536 22.8059L918.912 45.5599L920.569 44.4401L905.193 21.6861L903.536 22.8059ZM919.74 44H902.504V46H919.74V44ZM903.342 44.4539L896.026 33.2319L894.35 34.3241L901.667 45.5461L903.342 44.4539ZM894.346 33.2384L887.154 44.4604L888.838 45.5396L896.03 34.3176L894.346 33.2384ZM887.996 44H871.194V46H887.996V44ZM872.017 45.5685L887.269 23.4965L885.623 22.3595L870.371 44.4315L872.017 45.5685ZM887.277 22.3716L872.955 0.981631L871.293 2.09436L885.615 23.4844L887.277 22.3716ZM872.124 2.538H888.864V0.537998H872.124V2.538ZM12.268 105.14L11.801 106.024L11.8088 106.028L12.268 105.14ZM3.588 97.08L2.72862 97.5915L2.73599 97.6035L3.588 97.08ZM3.588 73.582L2.73321 73.063L2.73142 73.066L3.588 73.582ZM12.268 65.522L12.7272 66.4104L12.735 66.4063L12.268 65.522ZM35.952 64.84L35.5416 65.7519L35.952 64.84ZM44.136 71.288L44.8019 72.034L45.4934 71.4168L44.9304 70.6805L44.136 71.288ZM34.898 79.534L34.1143 80.1552L34.773 80.9861L35.5639 80.28L34.898 79.534ZM18.034 77.426L18.7563 78.1176L18.7635 78.1099L18.034 77.426ZM18.034 93.236L17.3044 93.92L17.3117 93.9276L18.034 93.236ZM34.898 91.066L35.5639 90.32L34.773 89.6139L34.1143 90.4448L34.898 91.066ZM44.136 99.312L44.9304 99.9194L45.4934 99.1832L44.8019 98.566L44.136 99.312ZM35.952 105.76L35.5416 104.848L35.952 105.76ZM24.668 106.992C20.2222 106.992 16.2491 106.072 12.7272 104.252L11.8088 106.028C15.6442 108.011 19.9378 108.992 24.668 108.992V106.992ZM12.735 104.256C9.20914 102.394 6.45107 99.8294 4.44001 96.5565L2.73599 97.6035C4.94093 101.192 7.96953 104.001 11.801 106.024L12.735 104.256ZM4.44729 96.5685C2.48043 93.2642 1.488 89.517 1.488 85.3H-0.512C-0.512 89.8457 0.562232 93.9518 2.72871 97.5915L4.44729 96.5685ZM1.488 85.3C1.488 81.0829 2.48045 77.3585 4.44458 74.098L2.73142 73.066C0.562214 76.6669 -0.512 80.7545 -0.512 85.3H1.488ZM4.44279 74.101C6.45343 70.7893 9.20846 68.229 12.7272 66.4104L11.8088 64.6336C7.97021 66.6177 4.93857 69.4307 2.73321 73.063L4.44279 74.101ZM12.735 66.4063C16.2554 64.5472 20.2257 63.608 24.668 63.608V61.608C19.9343 61.608 15.638 62.6115 11.801 64.6377L12.735 66.4063ZM24.668 63.608C28.7654 63.608 32.3833 64.3307 35.5416 65.7519L36.3624 63.9281C32.9074 62.3733 29.0026 61.608 24.668 61.608V63.608ZM35.5416 65.7519C38.7009 67.1736 41.2956 69.2199 43.3416 71.8954L44.9304 70.6805C42.6777 67.7347 39.8164 65.4824 36.3624 63.9281L35.5416 65.7519ZM43.4701 70.542L34.2321 78.788L35.5639 80.28L44.8019 72.034L43.4701 70.542ZM35.6817 78.9128C32.8453 75.3347 29.4138 73.45 25.412 73.45V75.45C28.6849 75.45 31.5773 76.9547 34.1143 80.1552L35.6817 78.9128ZM25.412 73.45C22.1149 73.45 19.378 74.5303 17.3045 76.7421L18.7635 78.1099C20.41 76.3537 22.5917 75.45 25.412 75.45V73.45ZM17.3117 76.7344C15.2346 78.9039 14.244 81.798 14.244 85.3H16.244C16.244 82.1886 17.1134 79.8335 18.7563 78.1176L17.3117 76.7344ZM14.244 85.3C14.244 88.8028 15.2348 91.7123 17.3045 93.9199L18.7635 92.5521C17.1132 90.7917 16.244 88.4105 16.244 85.3H14.244ZM17.3117 93.9276C19.3869 96.095 22.1216 97.15 25.412 97.15V95.15C22.5851 95.15 20.4011 94.2623 18.7563 92.5444L17.3117 93.9276ZM25.412 97.15C29.4138 97.15 32.8453 95.2653 35.6817 91.6872L34.1143 90.4448C31.5773 93.6453 28.6849 95.15 25.412 95.15V97.15ZM34.2321 91.812L43.4701 100.058L44.8019 98.566L35.5639 90.32L34.2321 91.812ZM43.3416 98.7046C41.2956 101.38 38.7009 103.426 35.5416 104.848L36.3624 106.672C39.8164 105.118 42.6777 102.865 44.9304 99.9194L43.3416 98.7046ZM35.5416 104.848C32.3833 106.269 28.7654 106.992 24.668 106.992V108.992C29.0026 108.992 32.9074 108.227 36.3624 106.672L35.5416 104.848ZM87.5694 99.436L88.5026 99.0765L88.2558 98.436H87.5694V99.436ZM71.0774 99.436V98.436H70.391L70.1443 99.0765L71.0774 99.436ZM68.1634 107V108H68.8498L69.0966 107.359L68.1634 107ZM53.2834 107L52.3671 106.599L51.7549 108H53.2834V107ZM72.2554 63.6V62.6H71.6012L71.3391 63.1995L72.2554 63.6ZM86.6394 63.6L87.5557 63.1995L87.2936 62.6H86.6394V63.6ZM105.611 107V108H107.14L106.528 106.599L105.611 107ZM90.4834 107L89.5503 107.359L89.797 108H90.4834V107ZM83.5394 88.896V89.896H84.9978L84.4722 88.5356L83.5394 88.896ZM79.3234 77.984L80.2562 77.6236L79.3234 75.2093L78.3906 77.6236L79.3234 77.984ZM75.1074 88.896L74.1746 88.5356L73.649 89.896H75.1074V88.896ZM87.5694 98.436H71.0774V100.436H87.5694V98.436ZM70.1443 99.0765L67.2303 106.641L69.0966 107.359L72.0106 99.7955L70.1443 99.0765ZM68.1634 106H53.2834V108H68.1634V106ZM54.1997 107.401L73.1717 64.0005L71.3391 63.1995L52.3671 106.599L54.1997 107.401ZM72.2554 64.6H86.6394V62.6H72.2554V64.6ZM85.7231 64.0005L104.695 107.401L106.528 106.599L87.5557 63.1995L85.7231 64.0005ZM105.611 106H90.4834V108H105.611V106ZM91.4166 106.641L88.5026 99.0765L86.6363 99.7955L89.5503 107.359L91.4166 106.641ZM84.4722 88.5356L80.2562 77.6236L78.3906 78.3444L82.6066 89.2564L84.4722 88.5356ZM78.3906 77.6236L74.1746 88.5356L76.0402 89.2564L80.2562 78.3444L78.3906 77.6236ZM75.1074 89.896H83.5394V87.896H75.1074V89.896ZM118.607 63.6V62.6H117.607V63.6H118.607ZM132.991 63.6H133.991V62.6H132.991V63.6ZM132.991 86.168H131.991V89.4898L133.825 86.7201L132.991 86.168ZM147.933 63.6V62.6H147.396L147.099 63.0479L147.933 63.6ZM161.697 63.6H162.697V62.6H161.697V63.6ZM161.697 107V108H162.697V107H161.697ZM147.313 107H146.313V108H147.313V107ZM147.313 84.494H148.313V81.1683L146.479 83.9425L147.313 84.494ZM132.433 107V108H132.971L133.267 107.552L132.433 107ZM118.607 107H117.607V108H118.607V107ZM129.767 58.454L130.412 57.6895L129.767 58.454ZM126.605 50.456V49.456H125.605V50.456H126.605ZM136.339 50.456H137.339V49.456H136.339V50.456ZM137.145 53.494L136.39 54.1489L136.402 54.1628L136.414 54.1763L137.145 53.494ZM143.097 53.494L142.39 52.7869L142.378 52.7991L142.366 52.8117L143.097 53.494ZM144.027 50.456V49.456H143.027V50.456H144.027ZM153.761 50.456H154.761V49.456H153.761V50.456ZM150.537 58.454L149.9 57.6833L150.537 58.454ZM118.607 64.6H132.991V62.6H118.607V64.6ZM131.991 63.6V86.168H133.991V63.6H131.991ZM133.825 86.7201L148.767 64.1521L147.099 63.0479L132.157 85.6159L133.825 86.7201ZM147.933 64.6H161.697V62.6H147.933V64.6ZM160.697 63.6V107H162.697V63.6H160.697ZM161.697 106H147.313V108H161.697V106ZM148.313 107V84.494H146.313V107H148.313ZM146.479 83.9425L131.599 106.448L133.267 107.552L148.147 85.0455L146.479 83.9425ZM132.433 106H118.607V108H132.433V106ZM119.607 107V63.6H117.607V107H119.607ZM140.121 60.12C135.404 60.12 132.247 59.2371 130.412 57.6895L129.123 59.2185C131.503 61.2256 135.249 62.12 140.121 62.12V60.12ZM130.412 57.6895C128.591 56.1542 127.605 53.8075 127.605 50.456H125.605C125.605 54.2138 126.728 57.1991 129.123 59.2185L130.412 57.6895ZM126.605 51.456H136.339V49.456H126.605V51.456ZM135.339 50.456C135.339 51.9449 135.616 53.256 136.39 54.1489L137.901 52.8391C137.6 52.492 137.339 51.7778 137.339 50.456H135.339ZM136.414 54.1763C137.275 55.0985 138.613 55.424 140.121 55.424V53.424C138.819 53.424 138.173 53.1295 137.876 52.8117L136.414 54.1763ZM140.121 55.424C141.629 55.424 142.968 55.0985 143.828 54.1763L142.366 52.8117C142.07 53.1295 141.424 53.424 140.121 53.424V55.424ZM143.804 54.2011C144.698 53.3074 145.027 51.9728 145.027 50.456H143.027C143.027 51.7498 142.736 52.4406 142.39 52.7869L143.804 54.2011ZM144.027 51.456H153.761V49.456H144.027V51.456ZM152.761 50.456C152.761 53.8012 151.759 56.146 149.9 57.6833L151.174 59.2246C153.614 57.2073 154.761 54.2201 154.761 50.456H152.761ZM149.9 57.6833C148.02 59.2382 144.835 60.12 140.121 60.12V62.12C144.997 62.12 148.756 61.2245 151.174 59.2246L149.9 57.6833ZM215.348 74.946V75.946H216.348V74.946H215.348ZM202.638 74.946V73.946H201.638V74.946H202.638ZM202.638 107V108H203.638V107H202.638ZM188.254 107H187.254V108H188.254V107ZM188.254 74.946H189.254V73.946H188.254V74.946ZM175.544 74.946H174.544V75.946H175.544V74.946ZM175.544 63.6V62.6H174.544V63.6H175.544ZM215.348 63.6H216.348V62.6H215.348V63.6ZM215.348 73.946H202.638V75.946H215.348V73.946ZM201.638 74.946V107H203.638V74.946H201.638ZM202.638 106H188.254V108H202.638V106ZM189.254 107V74.946H187.254V107H189.254ZM188.254 73.946H175.544V75.946H188.254V73.946ZM176.544 74.946V63.6H174.544V74.946H176.544ZM175.544 64.6H215.348V62.6H175.544V64.6ZM214.348 63.6V74.946H216.348V63.6H214.348ZM238.044 105.078L238.507 104.192L238.044 105.078ZM229.302 97.018L228.447 97.537L228.45 97.5415L229.302 97.018ZM229.302 73.644L230.154 74.1675L230.157 74.163L229.302 73.644ZM263.216 65.522L263.679 64.6356L263.216 65.522ZM271.958 73.644L271.103 74.163L271.106 74.1675L271.958 73.644ZM271.958 97.018L272.81 97.5415L272.813 97.537L271.958 97.018ZM263.216 105.078L263.679 105.964L263.216 105.078ZM255.528 94.848L256.042 95.7055L256.049 95.7013L255.528 94.848ZM259.062 91.066L259.942 91.5401L259.947 91.5308L259.062 91.066ZM259.062 79.596L258.176 80.0609L258.181 80.0701L259.062 79.596ZM255.528 75.814L254.996 76.6606L255.01 76.6694L255.024 76.6778L255.528 75.814ZM245.67 75.814L246.184 76.6715L246.191 76.6673L245.67 75.814ZM242.198 79.596L243.078 80.0701L243.083 80.0608L242.198 79.596ZM242.198 91.066L241.312 91.5309L241.317 91.5401L242.198 91.066ZM245.67 94.848L245.138 95.6946L245.152 95.7034L245.166 95.7118L245.67 94.848ZM250.63 106.992C246.102 106.992 242.068 106.052 238.507 104.192L237.581 105.964C241.459 107.99 245.817 108.992 250.63 108.992V106.992ZM238.507 104.192C234.94 102.329 232.163 99.7646 230.154 96.4945L228.45 97.5415C230.657 101.133 233.708 103.942 237.581 105.964L238.507 104.192ZM230.157 96.499C228.15 93.1942 227.14 89.47 227.14 85.3H225.14C225.14 89.81 226.238 93.8978 228.447 97.537L230.157 96.499ZM227.14 85.3C227.14 81.1299 228.15 77.4284 230.154 74.1675L228.45 73.1205C226.238 76.7209 225.14 80.7901 225.14 85.3H227.14ZM230.157 74.163C232.167 70.8522 234.943 68.2696 238.507 66.4084L237.581 64.6356C233.705 66.6598 230.653 69.4917 228.447 73.125L230.157 74.163ZM238.507 66.4084C242.068 64.5485 246.102 63.608 250.63 63.608V61.608C245.817 61.608 241.459 62.6102 237.581 64.6356L238.507 66.4084ZM250.63 63.608C255.158 63.608 259.191 64.5485 262.753 66.4084L263.679 64.6356C259.8 62.6102 255.443 61.608 250.63 61.608V63.608ZM262.753 66.4084C266.317 68.2696 269.093 70.8522 271.103 74.163L272.813 73.125C270.607 69.4917 267.555 66.6598 263.679 64.6356L262.753 66.4084ZM271.106 74.1675C273.11 77.4284 274.12 81.1299 274.12 85.3H276.12C276.12 80.7901 275.022 76.7209 272.81 73.1205L271.106 74.1675ZM274.12 85.3C274.12 89.47 273.11 93.1942 271.103 96.499L272.813 97.537C275.022 93.8978 276.12 89.81 276.12 85.3H274.12ZM271.106 96.4945C269.097 99.7646 266.32 102.329 262.753 104.192L263.679 105.964C267.552 103.942 270.603 101.133 272.81 97.5415L271.106 96.4945ZM262.753 104.192C259.191 106.052 255.158 106.992 250.63 106.992V108.992C255.443 108.992 259.8 107.99 263.679 105.964L262.753 104.192ZM250.63 97.15C252.615 97.15 254.428 96.674 256.042 95.7055L255.013 93.9905C253.734 94.758 252.282 95.15 250.63 95.15V97.15ZM256.049 95.7013C257.696 94.6949 258.995 93.3 259.942 91.5401L258.181 90.5919C257.393 92.056 256.336 93.1824 255.006 93.9947L256.049 95.7013ZM259.947 91.5308C260.903 89.7112 261.364 87.6246 261.364 85.3H259.364C259.364 87.3568 258.957 89.1141 258.177 90.6012L259.947 91.5308ZM261.364 85.3C261.364 82.9762 260.903 80.9057 259.942 79.1219L258.181 80.0701C258.957 81.5103 259.364 83.2424 259.364 85.3H261.364ZM259.947 79.1312C259 77.3262 257.695 75.9207 256.032 74.9502L255.024 76.6778C256.336 77.4433 257.388 78.5591 258.177 80.0608L259.947 79.1312ZM256.06 74.9674C254.444 73.9513 252.624 73.45 250.63 73.45V75.45C252.273 75.45 253.719 75.858 254.996 76.6606L256.06 74.9674ZM250.63 73.45C248.635 73.45 246.8 73.9512 245.148 74.9607L246.191 76.6673C247.515 75.8581 248.987 75.45 250.63 75.45V73.45ZM245.155 74.9565C243.535 75.9288 242.256 77.3333 241.312 79.1312L243.083 80.0608C243.875 78.552 244.911 77.4352 246.184 76.6715L245.155 74.9565ZM241.317 79.1219C240.357 80.9057 239.896 82.9762 239.896 85.3H241.896C241.896 83.2424 242.303 81.5103 243.078 80.0701L241.317 79.1219ZM239.896 85.3C239.896 87.6246 240.357 89.7112 241.312 91.5308L243.083 90.6012C242.303 89.1141 241.896 87.3568 241.896 85.3H239.896ZM241.317 91.5401C242.261 93.2931 243.534 94.6868 245.138 95.6946L246.202 94.0014C244.912 93.1906 243.87 92.0629 243.078 90.5919L241.317 91.5401ZM245.166 95.7118C246.816 96.674 248.644 97.15 250.63 97.15V95.15C248.978 95.15 247.5 94.758 246.174 93.9842L245.166 95.7118ZM322.732 84.246L322.245 83.3728L320.318 84.4482L322.397 85.1881L322.732 84.246ZM328.312 88.152L327.507 88.7459L327.514 88.7551L328.312 88.152ZM325.584 103.652L326.174 104.46L326.175 104.458L325.584 103.652ZM289.376 107H288.376V108H289.376V107ZM289.376 63.6V62.6H288.376V63.6H289.376ZM323.848 66.576L323.288 67.4045L323.293 67.4081L323.848 66.576ZM326.824 80.402L325.979 79.868L325.973 79.8761L325.969 79.8842L326.824 80.402ZM303.76 80.278H302.76V81.278H303.76V80.278ZM303.76 73.83V72.83H302.76V73.83H303.76ZM303.76 89.95V88.95H302.76V89.95H303.76ZM303.76 96.77H302.76V97.77H303.76V96.77ZM322.397 85.1881C324.686 86.0029 326.366 87.1998 327.507 88.7458L329.117 87.5581C327.695 85.6322 325.656 84.2251 323.067 83.3039L322.397 85.1881ZM327.514 88.7551C328.643 90.2482 329.234 92.1139 329.234 94.414H331.234C331.234 91.7541 330.543 89.4451 329.11 87.5489L327.514 88.7551ZM329.234 94.414C329.234 97.9848 327.833 100.763 324.993 102.846L326.175 104.458C329.536 101.994 331.234 98.6138 331.234 94.414H329.234ZM324.995 102.844C322.172 104.904 318.071 106 312.564 106V108C318.3 108 322.879 106.864 326.174 104.46L324.995 102.844ZM312.564 106H289.376V108H312.564V106ZM290.376 107V63.6H288.376V107H290.376ZM289.376 64.6H311.386V62.6H289.376V64.6ZM311.386 64.6C316.656 64.6 320.584 65.5762 323.288 67.4044L324.408 65.7476C321.243 63.6077 316.862 62.6 311.386 62.6V64.6ZM323.293 67.4081C325.989 69.2054 327.312 71.6822 327.312 74.946H329.312C329.312 71.0178 327.659 67.9146 324.403 65.7439L323.293 67.4081ZM327.312 74.946C327.312 76.8456 326.859 78.4748 325.979 79.868L327.67 80.936C328.774 79.1879 329.312 77.1797 329.312 74.946H327.312ZM325.969 79.8842C325.117 81.2908 323.887 82.4559 322.245 83.3728L323.219 85.1192C325.131 84.0521 326.63 82.6545 327.68 80.9198L325.969 79.8842ZM303.76 81.278H309.96V79.278H303.76V81.278ZM309.96 81.278C311.284 81.278 312.463 80.9899 313.317 80.2385C314.196 79.4655 314.556 78.3599 314.556 77.116H312.556C312.556 77.9801 312.316 78.4555 311.997 78.7365C311.653 79.0391 311.034 79.278 309.96 79.278V81.278ZM314.556 77.116C314.556 75.8422 314.203 74.7099 313.332 73.9133C312.477 73.1323 311.292 72.83 309.96 72.83V74.83C311.026 74.83 311.638 75.0754 311.982 75.3897C312.309 75.6884 312.556 76.1992 312.556 77.116H314.556ZM309.96 72.83H303.76V74.83H309.96V72.83ZM302.76 73.83V80.278H304.76V73.83H302.76ZM311.882 97.77C313.226 97.77 314.42 97.446 315.274 96.6214C316.134 95.7905 316.478 94.6186 316.478 93.298H314.478C314.478 94.2921 314.223 94.8561 313.884 95.1826C313.54 95.5154 312.935 95.77 311.882 95.77V97.77ZM316.478 93.298C316.478 92.0088 316.129 90.8633 315.26 90.0551C314.406 89.2595 313.218 88.95 311.882 88.95V90.95C312.944 90.95 313.554 91.1985 313.898 91.5189C314.228 91.8267 314.478 92.3552 314.478 93.298H316.478ZM311.882 88.95H303.76V90.95H311.882V88.95ZM302.76 89.95V96.77H304.76V89.95H302.76ZM303.76 97.77H311.882V95.77H303.76V97.77ZM420.69 95.654H421.69V94.654H420.69V95.654ZM420.69 115.494V116.494H421.69V115.494H420.69ZM407.298 115.494H406.298V116.494H407.298V115.494ZM407.298 107H408.298V106H407.298V107ZM382.622 107V106H381.622V107H382.622ZM382.622 115.494V116.494H383.622V115.494H382.622ZM369.23 115.494H368.23V116.494H369.23V115.494ZM369.23 95.654V94.654H368.23V95.654H369.23ZM375.802 90.88L374.851 90.5712L375.802 90.88ZM377.786 76.806L378.785 76.8526L378.785 76.8435L377.786 76.806ZM378.282 63.6V62.6H377.319L377.283 63.5625L378.282 63.6ZM414.986 63.6H415.986V62.6H414.986V63.6ZM414.986 95.654H413.986V96.654H414.986V95.654ZM390.496 78.046L389.497 78.006L389.497 78.0064L390.496 78.046ZM389.504 88.71L390.49 88.879L390.49 88.8766L389.504 88.71ZM387.21 95.654L386.351 95.1425L385.451 96.654H387.21V95.654ZM400.602 95.654V96.654H401.602V95.654H400.602ZM400.602 74.946H401.602V73.946H400.602V74.946ZM390.62 74.946V73.946H389.659L389.621 74.906L390.62 74.946ZM419.69 95.654V115.494H421.69V95.654H419.69ZM420.69 114.494H407.298V116.494H420.69V114.494ZM408.298 115.494V107H406.298V115.494H408.298ZM407.298 106H382.622V108H407.298V106ZM381.622 107V115.494H383.622V107H381.622ZM382.622 114.494H369.23V116.494H382.622V114.494ZM370.23 115.494V95.654H368.23V115.494H370.23ZM369.23 96.654H370.47V94.654H369.23V96.654ZM370.47 96.654C371.962 96.654 373.278 96.1753 374.361 95.2055C375.424 94.254 376.203 92.8838 376.753 91.1888L374.851 90.5712C374.368 92.0588 373.742 93.0757 373.027 93.7155C372.333 94.337 371.5 94.654 370.47 94.654V96.654ZM376.753 91.1888C377.828 87.8775 378.494 83.0796 378.785 76.8526L376.787 76.7594C376.499 82.9324 375.843 87.5172 374.851 90.5712L376.753 91.1888ZM378.785 76.8435L379.281 63.6375L377.283 63.5625L376.787 76.7685L378.785 76.8435ZM378.282 64.6H414.986V62.6H378.282V64.6ZM413.986 63.6V95.654H415.986V63.6H413.986ZM414.986 96.654H420.69V94.654H414.986V96.654ZM389.497 78.0064C389.333 82.1541 389.005 85.6637 388.518 88.5434L390.49 88.8766C390.995 85.887 391.329 82.2873 391.495 78.0856L389.497 78.0064ZM388.518 88.541C388.035 91.3634 387.3 93.5482 386.351 95.1425L388.069 96.1655C389.187 94.2878 389.982 91.8432 390.49 88.879L388.518 88.541ZM387.21 96.654H400.602V94.654H387.21V96.654ZM401.602 95.654V74.946H399.602V95.654H401.602ZM400.602 73.946H390.62V75.946H400.602V73.946ZM389.621 74.906L389.497 78.006L391.495 78.086L391.619 74.986L389.621 74.906ZM476.94 63.6H477.94V62.6H476.94V63.6ZM476.94 107V108H477.94V107H476.94ZM462.556 107H461.556V108H462.556V107ZM462.556 74.946H463.556V73.946H462.556V74.946ZM452.636 74.946V73.946H451.66L451.636 74.9213L452.636 74.946ZM452.512 79.968L453.512 79.9947L453.512 79.9927L452.512 79.968ZM451.024 95.22L452.003 95.424L451.024 95.22ZM446.684 104.52L447.411 105.206L447.418 105.199L446.684 104.52ZM431.618 107L430.62 106.937L430.567 107.772L431.38 107.971L431.618 107ZM432.362 95.282L432.587 94.3076L431.439 94.0426L431.364 95.2186L432.362 95.282ZM437.446 93.608L436.614 93.0533L436.608 93.063L436.601 93.0729L437.446 93.608ZM439.12 88.648L440.11 88.7866L439.12 88.648ZM439.74 80.526L440.739 80.563L440.74 80.5589L439.74 80.526ZM440.298 63.6V62.6H439.33L439.299 63.567L440.298 63.6ZM475.94 63.6V107H477.94V63.6H475.94ZM476.94 106H462.556V108H476.94V106ZM463.556 107V74.946H461.556V107H463.556ZM462.556 73.946H452.636V75.946H462.556V73.946ZM451.636 74.9213L451.512 79.9433L453.512 79.9927L453.636 74.9707L451.636 74.9213ZM451.512 79.9413C451.348 86.1095 450.855 91.1284 450.045 95.016L452.003 95.424C452.846 91.3756 453.346 86.2265 453.512 79.9947L451.512 79.9413ZM450.045 95.016C449.243 98.8636 447.859 101.779 445.95 103.841L447.418 105.199C449.642 102.797 451.151 99.5124 452.003 95.424L450.045 95.016ZM445.957 103.834C444.128 105.772 441.467 106.806 437.818 106.806V108.806C441.857 108.806 445.107 107.649 447.411 105.206L445.957 103.834ZM437.818 106.806C435.967 106.806 433.981 106.55 431.856 106.029L431.38 107.971C433.636 108.525 435.783 108.806 437.818 108.806V106.806ZM432.616 107.063L433.36 95.3454L431.364 95.2186L430.62 106.937L432.616 107.063ZM432.137 96.2564C432.746 96.397 433.359 96.468 433.974 96.468V94.468C433.514 94.468 433.052 94.415 432.587 94.3076L432.137 96.2564ZM433.974 96.468C435.829 96.468 437.313 95.6869 438.291 94.1431L436.601 93.0729C436.008 94.0091 435.178 94.468 433.974 94.468V96.468ZM438.278 94.1627C439.215 92.758 439.808 90.9463 440.11 88.7866L438.13 88.5094C437.853 90.483 437.331 91.978 436.614 93.0533L438.278 94.1627ZM440.11 88.7866C440.406 86.6724 440.615 83.9273 440.739 80.563L438.741 80.489C438.617 83.8207 438.412 86.4903 438.13 88.5094L440.11 88.7866ZM440.74 80.5589L441.298 63.6329L439.299 63.567L438.741 80.493L440.74 80.5589ZM440.298 64.6H476.94V62.6H440.298V64.6ZM531.664 63.6H532.664V62.6H531.664V63.6ZM531.664 107V108H532.664V107H531.664ZM517.28 107H516.28V108H517.28V107ZM517.28 96.708H518.28V95.708H517.28V96.708ZM513.374 96.708V95.708H512.829L512.533 96.1662L513.374 96.708ZM506.74 107V108H507.285L507.58 107.542L506.74 107ZM491.426 107L490.603 106.432L489.521 108H491.426V107ZM499.982 94.6L500.805 95.1679L501.475 94.1973L500.408 93.6952L499.982 94.6ZM493.472 89.02L492.618 89.5409L492.623 89.5494L492.629 89.5578L493.472 89.02ZM493.658 71.474L492.822 70.9256L492.815 70.9353L493.658 71.474ZM500.664 65.646L500.252 64.7348L500.664 65.646ZM517.28 85.672V86.672H518.28V85.672H517.28ZM517.28 74.884H518.28V73.884H517.28V74.884ZM530.664 63.6V107H532.664V63.6H530.664ZM531.664 106H517.28V108H531.664V106ZM518.28 107V96.708H516.28V107H518.28ZM517.28 95.708H513.374V97.708H517.28V95.708ZM512.533 96.1662L505.899 106.458L507.58 107.542L514.214 97.2498L512.533 96.1662ZM506.74 106H491.426V108H506.74V106ZM492.249 107.568L500.805 95.1679L499.159 94.0321L490.603 106.432L492.249 107.568ZM500.408 93.6952C497.751 92.4453 495.733 90.7056 494.315 88.4822L492.629 89.5578C494.269 92.1291 496.591 94.1094 499.556 95.5048L500.408 93.6952ZM494.325 88.4991C492.947 86.2407 492.24 83.5543 492.24 80.402H490.24C490.24 83.863 491.02 86.922 492.618 89.5409L494.325 88.4991ZM492.24 80.402C492.24 77.1336 493.006 74.3506 494.5 72.0127L492.815 70.9353C491.086 73.64 490.24 76.8091 490.24 80.402H492.24ZM494.494 72.0224C496.033 69.6752 498.214 67.851 501.076 66.5572L500.252 64.7348C497.079 66.169 494.589 68.2301 492.822 70.9256L494.494 72.0224ZM501.076 66.5572C503.937 65.2638 507.345 64.6 511.328 64.6V62.6C507.126 62.6 503.425 63.3002 500.252 64.7348L501.076 66.5572ZM511.328 64.6H531.664V62.6H511.328V64.6ZM511.576 73.884C509.575 73.884 507.889 74.3552 506.704 75.4745C505.508 76.6039 504.996 78.2281 504.996 80.154H506.996C506.996 78.5665 507.413 77.5558 508.077 76.9285C508.752 76.2911 509.856 75.884 511.576 75.884V73.884ZM504.996 80.154C504.996 82.1503 505.502 83.8306 506.688 85.0035C507.872 86.1744 509.564 86.672 511.576 86.672V84.672C509.867 84.672 508.77 84.2499 508.094 83.5815C507.42 82.915 506.996 81.8363 506.996 80.154H504.996ZM511.576 86.672H517.28V84.672H511.576V86.672ZM518.28 85.672V74.884H516.28V85.672H518.28ZM517.28 73.884H511.576V75.884H517.28V73.884ZM575.937 63.6V62.6H574.937V63.6H575.937ZM613.571 63.6H614.571V62.6H613.571V63.6ZM613.571 74.636V75.636H614.571V74.636H613.571ZM590.321 74.636V73.636H589.321V74.636H590.321ZM590.321 79.658H589.321V80.658H590.321V79.658ZM612.827 83.068L612.198 83.8455L612.205 83.8506L612.211 83.8555L612.827 83.068ZM612.269 103.218L611.653 102.43L612.269 103.218ZM575.937 107H574.937V108H575.937V107ZM601.171 95.84L600.571 95.04L600.561 95.0474L600.552 95.0551L601.171 95.84ZM590.321 89.826V88.826H589.321V89.826H590.321ZM590.321 96.77H589.321V97.77H590.321V96.77ZM575.937 64.6H613.571V62.6H575.937V64.6ZM612.571 63.6V74.636H614.571V63.6H612.571ZM613.571 73.636H590.321V75.636H613.571V73.636ZM589.321 74.636V79.658H591.321V74.636H589.321ZM590.321 80.658H600.675V78.658H590.321V80.658ZM600.675 80.658C605.84 80.658 609.632 81.7697 612.198 83.8455L613.456 82.2905C610.401 79.8197 606.092 78.658 600.675 78.658V80.658ZM612.211 83.8555C614.777 85.8635 616.105 88.7916 616.105 92.802H618.105C618.105 88.2977 616.582 84.7365 613.443 82.2805L612.211 83.8555ZM616.105 92.802C616.105 96.9455 614.613 100.115 611.653 102.43L612.885 104.006C616.373 101.278 618.105 97.5038 618.105 92.802H616.105ZM611.653 102.43C608.664 104.768 604.426 106 598.815 106V108C604.695 108 609.427 106.711 612.885 104.006L611.653 102.43ZM598.815 106H575.937V108H598.815V106ZM576.937 107V63.6H574.937V107H576.937ZM597.823 97.77C599.397 97.77 600.765 97.4344 601.791 96.6249L600.552 95.0551C600.006 95.4856 599.142 95.77 597.823 95.77V97.77ZM601.771 96.64C602.882 95.8066 603.411 94.6027 603.411 93.174H601.411C601.411 94.0599 601.113 94.6334 600.571 95.04L601.771 96.64ZM603.411 93.174C603.411 91.8036 602.925 90.6367 601.854 89.8552C600.841 89.1165 599.444 88.826 597.823 88.826V90.826C599.26 90.826 600.158 91.0935 600.675 91.4708C601.133 91.8053 601.411 92.3124 601.411 93.174H603.411ZM597.823 88.826H590.321V90.826H597.823V88.826ZM589.321 89.826V96.77H591.321V89.826H589.321ZM590.321 97.77H597.823V95.77H590.321V97.77ZM631.124 63.6V62.6H630.124V63.6H631.124ZM645.508 63.6H646.508V62.6H645.508V63.6ZM645.508 86.168H644.508V89.4898L646.342 86.7201L645.508 86.168ZM660.45 63.6V62.6H659.913L659.617 63.0479L660.45 63.6ZM674.214 63.6H675.214V62.6H674.214V63.6ZM674.214 107V108H675.214V107H674.214ZM659.83 107H658.83V108H659.83V107ZM659.83 84.494H660.83V81.1683L658.996 83.9425L659.83 84.494ZM644.95 107V108H645.488L645.785 107.552L644.95 107ZM631.124 107H630.124V108H631.124V107ZM631.124 64.6H645.508V62.6H631.124V64.6ZM644.508 63.6V86.168H646.508V63.6H644.508ZM646.342 86.7201L661.284 64.1521L659.617 63.0479L644.675 85.6159L646.342 86.7201ZM660.45 64.6H674.214V62.6H660.45V64.6ZM673.214 63.6V107H675.214V63.6H673.214ZM674.214 106H659.83V108H674.214V106ZM660.83 107V84.494H658.83V107H660.83ZM658.996 83.9425L644.116 106.448L645.785 107.552L660.665 85.0455L658.996 83.9425ZM644.95 106H631.124V108H644.95V106ZM632.124 107V63.6H630.124V107H632.124ZM719.991 84.432L719.52 83.5502L717.649 84.5509L719.611 85.357L719.991 84.432ZM725.385 88.586L724.568 89.1619L724.572 89.1681L724.576 89.1742L725.385 88.586ZM724.455 101.916L723.734 101.224L723.733 101.224L724.455 101.916ZM716.705 106.504L717.01 107.456L717.018 107.454L716.705 106.504ZM687.875 104.272L686.954 103.882L686.571 104.789L687.471 105.187L687.875 104.272ZM692.153 94.166L692.531 93.2402L691.617 92.8671L691.232 93.7762L692.153 94.166ZM698.477 96.088L698.274 97.0671L698.283 97.069L698.292 97.0707L698.477 96.088ZM710.381 95.716L709.975 94.8021L709.965 94.8065L710.381 95.716ZM696.617 90.198H695.617V91.198H696.617V90.198ZM696.617 79.658V78.658H695.617V79.658H696.617ZM709.885 78.976L709.319 78.152L709.306 78.1606L709.294 78.1696L709.885 78.976ZM709.141 74.574L708.681 75.4618L708.687 75.4651L708.694 75.4684L709.141 74.574ZM699.035 74.45L698.797 73.4787L699.035 74.45ZM693.269 76.558L692.339 76.9248L692.74 77.9409L693.716 77.4524L693.269 76.558ZM688.991 65.708L688.576 64.7984L687.713 65.1926L688.061 66.0748L688.991 65.708ZM715.031 63.972L714.722 64.9231L714.726 64.9243L715.031 63.972ZM722.719 68.498L721.997 69.1899L722.005 69.1976L722.012 69.2051L722.719 68.498ZM724.145 80.65L724.991 81.184L724.145 80.65ZM719.611 85.357C721.772 86.2447 723.409 87.5178 724.568 89.1619L726.203 88.01C724.798 86.0169 722.839 84.5207 720.371 83.507L719.611 85.357ZM724.576 89.1742C725.771 90.8166 726.369 92.676 726.369 94.786H728.369C728.369 92.2666 727.645 89.9927 726.194 87.9978L724.576 89.1742ZM726.369 94.786C726.369 97.2479 725.503 99.3787 723.734 101.224L725.177 102.608C727.292 100.403 728.369 97.7801 728.369 94.786H726.369ZM723.733 101.224C721.97 103.064 719.541 104.518 716.393 105.554L717.018 107.454C720.4 106.341 723.138 104.736 725.177 102.608L723.733 101.224ZM716.4 105.552C713.29 106.549 709.799 107.054 705.917 107.054V109.054C709.971 109.054 713.672 108.526 717.01 107.456L716.4 105.552ZM705.917 107.054C699.73 107.054 693.854 105.822 688.279 103.357L687.471 105.187C693.304 107.765 699.456 109.054 705.917 109.054V107.054ZM688.796 104.662L693.074 94.5558L691.232 93.7762L686.954 103.882L688.796 104.662ZM691.775 95.0919C693.858 95.9421 696.025 96.6003 698.274 97.0671L698.68 95.1089C696.548 94.6663 694.499 94.0432 692.531 93.2402L691.775 95.0919ZM698.292 97.0707C700.535 97.4939 702.664 97.708 704.677 97.708V95.708C702.805 95.708 700.801 95.5088 698.663 95.1053L698.292 97.0707ZM704.677 97.708C707.114 97.708 709.173 97.3681 710.797 96.6255L709.965 94.8065C708.697 95.3866 706.953 95.708 704.677 95.708V97.708ZM710.787 96.6298C711.635 96.2529 712.347 95.7546 712.849 95.0996C713.361 94.4307 713.613 93.6514 713.613 92.802H711.613C711.613 93.234 711.493 93.5809 711.261 93.8834C711.019 94.1997 710.615 94.5178 709.975 94.8022L710.787 96.6298ZM713.613 92.802C713.613 91.602 713.089 90.6189 712.064 89.9948C711.119 89.4196 709.83 89.198 708.335 89.198V91.198C709.692 91.198 710.543 91.4103 711.024 91.7032C711.424 91.9471 711.613 92.266 711.613 92.802H713.613ZM708.335 89.198H696.617V91.198H708.335V89.198ZM697.617 90.198V79.658H695.617V90.198H697.617ZM696.617 80.658H707.095V78.658H696.617V80.658ZM707.095 80.658C708.428 80.658 709.609 80.4189 710.477 79.7824L709.294 78.1696C708.922 78.4424 708.242 78.658 707.095 78.658V80.658ZM710.452 79.8C711.394 79.1522 711.877 78.1981 711.877 77.054H709.877C709.877 77.5632 709.699 77.8904 709.319 78.152L710.452 79.8ZM711.877 77.054C711.877 76.3256 711.677 75.6471 711.262 75.0545C710.855 74.4718 710.275 74.0228 709.588 73.6796L708.694 75.4684C709.165 75.7038 709.453 75.9575 709.624 76.2015C709.788 76.4355 709.877 76.7077 709.877 77.054H711.877ZM709.602 73.6862C708.291 73.0069 706.627 72.706 704.677 72.706V74.706C706.448 74.706 707.759 74.9837 708.681 75.4618L709.602 73.6862ZM704.677 72.706C702.847 72.706 700.885 72.9673 698.797 73.4787L699.273 75.4213C701.236 74.9407 703.036 74.706 704.677 74.706V72.706ZM698.797 73.4787C696.701 73.992 694.709 74.72 692.822 75.6636L693.716 77.4524C695.467 76.5773 697.318 75.9 699.273 75.4213L698.797 73.4787ZM694.2 76.1912L689.922 65.3412L688.061 66.0748L692.339 76.9248L694.2 76.1912ZM689.407 66.6176C694.062 64.4904 699.128 63.422 704.615 63.422V61.422C698.86 61.422 693.509 62.5443 688.576 64.7984L689.407 66.6176ZM704.615 63.422C708.285 63.422 711.651 63.9259 714.722 64.9231L715.34 63.0209C712.046 61.9514 708.469 61.422 704.615 61.422V63.422ZM714.726 64.9243C717.828 65.9185 720.235 67.3508 721.997 69.1899L723.441 67.8061C721.401 65.6772 718.683 64.0922 715.336 63.0197L714.726 64.9243ZM722.012 69.2051C723.775 70.9683 724.633 73.0111 724.633 75.38H726.633C726.633 72.4582 725.548 69.913 723.426 67.7909L722.012 69.2051ZM724.633 75.38C724.633 77.1427 724.186 78.7127 723.3 80.116L724.991 81.184C726.088 79.446 726.633 77.5026 726.633 75.38H724.633ZM723.3 80.116C722.408 81.5281 721.158 82.674 719.52 83.5502L720.463 85.3138C722.379 84.2886 723.898 82.9133 724.991 81.184L723.3 80.116ZM784.339 63.6H785.339V62.6H784.339V63.6ZM784.339 107V108H785.339V107H784.339ZM769.707 107H768.707V108H769.707V107ZM769.707 91.004H770.707V90.004H769.707V91.004ZM756.191 91.004V90.004H755.191V91.004H756.191ZM756.191 107V108H757.191V107H756.191ZM741.559 107H740.559V108H741.559V107ZM741.559 63.6V62.6H740.559V63.6H741.559ZM756.191 63.6H757.191V62.6H756.191V63.6ZM756.191 78.976H755.191V79.976H756.191V78.976ZM769.707 78.976V79.976H770.707V78.976H769.707ZM769.707 63.6V62.6H768.707V63.6H769.707ZM783.339 63.6V107H785.339V63.6H783.339ZM784.339 106H769.707V108H784.339V106ZM770.707 107V91.004H768.707V107H770.707ZM769.707 90.004H756.191V92.004H769.707V90.004ZM755.191 91.004V107H757.191V91.004H755.191ZM756.191 106H741.559V108H756.191V106ZM742.559 107V63.6H740.559V107H742.559ZM741.559 64.6H756.191V62.6H741.559V64.6ZM755.191 63.6V78.976H757.191V63.6H755.191ZM756.191 79.976H769.707V77.976H756.191V79.976ZM770.707 78.976V63.6H768.707V78.976H770.707ZM769.707 64.6H784.339V62.6H769.707V64.6ZM837.13 95.964H838.13V94.964H837.13V95.964ZM837.13 107V108H838.13V107H837.13ZM801.046 107H800.046V108H801.046V107ZM801.046 63.6V62.6H800.046V63.6H801.046ZM836.324 63.6H837.324V62.6H836.324V63.6ZM836.324 74.636V75.636H837.324V74.636H836.324ZM815.43 74.636V73.636H814.43V74.636H815.43ZM815.43 79.72H814.43V80.72H815.43V79.72ZM833.782 79.72H834.782V78.72H833.782V79.72ZM833.782 90.26V91.26H834.782V90.26H833.782ZM815.43 90.26V89.26H814.43V90.26H815.43ZM815.43 95.964H814.43V96.964H815.43V95.964ZM836.13 95.964V107H838.13V95.964H836.13ZM837.13 106H801.046V108H837.13V106ZM802.046 107V63.6H800.046V107H802.046ZM801.046 64.6H836.324V62.6H801.046V64.6ZM835.324 63.6V74.636H837.324V63.6H835.324ZM836.324 73.636H815.43V75.636H836.324V73.636ZM814.43 74.636V79.72H816.43V74.636H814.43ZM815.43 80.72H833.782V78.72H815.43V80.72ZM832.782 79.72V90.26H834.782V79.72H832.782ZM833.782 89.26H815.43V91.26H833.782V89.26ZM814.43 90.26V95.964H816.43V90.26H814.43ZM815.43 96.964H837.13V94.964H815.43V96.964ZM861.479 105.14L861.012 106.024L861.02 106.028L861.479 105.14ZM852.799 97.08L851.94 97.5915L851.947 97.6035L852.799 97.08ZM852.799 73.582L851.944 73.063L851.943 73.066L852.799 73.582ZM861.479 65.522L861.938 66.4104L861.946 66.4063L861.479 65.522ZM885.163 64.84L884.753 65.7519L885.163 64.84ZM893.347 71.288L894.013 72.034L894.704 71.4168L894.141 70.6805L893.347 71.288ZM884.109 79.534L883.325 80.1552L883.984 80.9861L884.775 80.28L884.109 79.534ZM867.245 77.426L867.967 78.1176L867.975 78.1099L867.245 77.426ZM867.245 93.236L866.516 93.92L866.523 93.9276L867.245 93.236ZM884.109 91.066L884.775 90.32L883.984 89.6139L883.325 90.4448L884.109 91.066ZM893.347 99.312L894.141 99.9194L894.704 99.1832L894.013 98.566L893.347 99.312ZM885.163 105.76L884.753 104.848L885.163 105.76ZM873.879 106.992C869.433 106.992 865.46 106.072 861.938 104.252L861.02 106.028C864.855 108.011 869.149 108.992 873.879 108.992V106.992ZM861.946 104.256C858.42 102.394 855.662 99.8294 853.651 96.5565L851.947 97.6035C854.152 101.192 857.181 104.001 861.012 106.024L861.946 104.256ZM853.658 96.5685C851.691 93.2642 850.699 89.517 850.699 85.3H848.699C848.699 89.8457 849.773 93.9518 851.94 97.5915L853.658 96.5685ZM850.699 85.3C850.699 81.0829 851.692 77.3585 853.656 74.098L851.943 73.066C849.773 76.6669 848.699 80.7545 848.699 85.3H850.699ZM853.654 74.101C855.664 70.7893 858.419 68.229 861.938 66.4104L861.02 64.6336C857.181 66.6177 854.15 69.4307 851.944 73.063L853.654 74.101ZM861.946 66.4063C865.466 64.5472 869.437 63.608 873.879 63.608V61.608C869.145 61.608 864.849 62.6115 861.012 64.6377L861.946 66.4063ZM873.879 63.608C877.976 63.608 881.594 64.3307 884.753 65.7519L885.573 63.9281C882.118 62.3733 878.214 61.608 873.879 61.608V63.608ZM884.753 65.7519C887.912 67.1736 890.507 69.2199 892.553 71.8954L894.141 70.6805C891.889 67.7347 889.027 65.4824 885.573 63.9281L884.753 65.7519ZM892.681 70.542L883.443 78.788L884.775 80.28L894.013 72.034L892.681 70.542ZM884.893 78.9128C882.056 75.3347 878.625 73.45 874.623 73.45V75.45C877.896 75.45 880.788 76.9547 883.325 80.1552L884.893 78.9128ZM874.623 73.45C871.326 73.45 868.589 74.5303 866.516 76.7421L867.975 78.1099C869.621 76.3537 871.803 75.45 874.623 75.45V73.45ZM866.523 76.7344C864.446 78.9039 863.455 81.798 863.455 85.3H865.455C865.455 82.1886 866.325 79.8335 867.967 78.1176L866.523 76.7344ZM863.455 85.3C863.455 88.8028 864.446 91.7123 866.516 93.9199L867.975 92.5521C866.324 90.7917 865.455 88.4105 865.455 85.3H863.455ZM866.523 93.9276C868.598 96.095 871.333 97.15 874.623 97.15V95.15C871.796 95.15 869.612 94.2623 867.967 92.5444L866.523 93.9276ZM874.623 97.15C878.625 97.15 882.056 95.2653 884.893 91.6872L883.325 90.4448C880.788 93.6453 877.896 95.15 874.623 95.15V97.15ZM883.443 91.812L892.681 100.058L894.013 98.566L884.775 90.32L883.443 91.812ZM892.553 98.7046C890.507 101.38 887.912 103.426 884.753 104.848L885.573 106.672C889.027 105.118 891.889 102.865 894.141 99.9194L892.553 98.7046ZM884.753 104.848C881.594 106.269 877.976 106.992 873.879 106.992V108.992C878.214 108.992 882.118 108.227 885.573 106.672L884.753 104.848ZM936.781 99.436L937.714 99.0765L937.467 98.436H936.781V99.436ZM920.289 99.436V98.436H919.602L919.355 99.0765L920.289 99.436ZM917.375 107V108H918.061L918.308 107.359L917.375 107ZM902.495 107L901.578 106.599L900.966 108H902.495V107ZM921.467 63.6V62.6H920.812L920.55 63.1995L921.467 63.6ZM935.851 63.6L936.767 63.1995L936.505 62.6H935.851V63.6ZM954.823 107V108H956.351L955.739 106.599L954.823 107ZM939.695 107L938.761 107.359L939.008 108H939.695V107ZM932.751 88.896V89.896H934.209L933.683 88.5356L932.751 88.896ZM928.535 77.984L929.467 77.6236L928.535 75.2093L927.602 77.6236L928.535 77.984ZM924.319 88.896L923.386 88.5356L922.86 89.896H924.319V88.896ZM936.781 98.436H920.289V100.436H936.781V98.436ZM919.355 99.0765L916.441 106.641L918.308 107.359L921.222 99.7955L919.355 99.0765ZM917.375 106H902.495V108H917.375V106ZM903.411 107.401L922.383 64.0005L920.55 63.1995L901.578 106.599L903.411 107.401ZM921.467 64.6H935.851V62.6H921.467V64.6ZM934.934 64.0005L953.906 107.401L955.739 106.599L936.767 63.1995L934.934 64.0005ZM954.823 106H939.695V108H954.823V106ZM940.628 106.641L937.714 99.0765L935.847 99.7955L938.761 107.359L940.628 106.641ZM933.683 88.5356L929.467 77.6236L927.602 78.3444L931.818 89.2564L933.683 88.5356ZM927.602 77.6236L923.386 88.5356L925.251 89.2564L929.467 78.3444L927.602 77.6236ZM924.319 89.896H932.751V87.896H924.319V89.896Z" fill="black"/>
</svg>
