<svg width="180" height="180" viewBox="0 0 180 180" fill="none" xmlns="http://www.w3.org/2000/svg">
<g clip-path="url(#clip0_801_5)">
<path fill-rule="evenodd" clip-rule="evenodd" d="M48.9046 17.5557C68.5717 5.99902 78.4052 0.2207 89.1885 0.00800062C89.7296 -0.00266687 90.2703 -0.00266687 90.8113 0.00800062C101.595 0.2207 111.428 5.99902 131.095 17.5557C150.762 29.1124 160.596 34.8906 166.169 44.289C166.448 44.7603 166.719 45.2371 166.98 45.719C172.191 55.3301 172.191 66.8868 172.191 90C172.191 113.113 172.191 124.67 166.98 134.281C166.719 134.763 166.448 135.24 166.169 135.711C160.596 145.109 150.762 150.888 131.095 162.444C111.428 174.001 101.595 179.779 90.8113 179.992C90.2703 180.003 89.7296 180.003 89.1885 179.992C78.4052 179.779 68.5717 174.001 48.9046 162.444C29.2375 150.888 19.404 145.109 13.8313 135.711C13.5518 135.24 13.2814 134.763 13.02 134.281C7.80933 124.67 7.80933 113.113 7.80933 90C7.80933 66.8868 7.80933 55.3301 13.02 45.719C13.2814 45.2371 13.5518 44.7603 13.8313 44.289C19.404 34.8906 29.2375 29.1124 48.9046 17.5557ZM53.3137 97.0295L44.9398 92.1088C43.3449 91.1717 43.3449 88.8283 44.9398 87.8912L53.3137 82.9705C54.9089 82.0331 56.9027 83.2048 56.9027 85.0793V94.9207C56.9027 96.7952 54.9089 97.9668 53.3137 97.0295ZM135.06 92.1088L126.686 97.0295C125.091 97.9668 123.097 96.7952 123.097 94.9207V85.0793C123.097 83.2048 125.091 82.0331 126.686 82.9705L135.06 87.8912C136.655 88.8283 136.655 91.1717 135.06 92.1088ZM94.7173 139.514L118.028 98.4213C119.609 95.6345 118.573 92.3354 116.203 90.7858C115.833 90.5438 115.833 89.4561 116.203 89.2139C118.573 87.6646 119.609 84.3654 118.027 81.5786L117.343 80.3709L94.7173 40.4862C92.5683 36.6982 87.1965 36.6982 85.0478 40.4862L61.7374 81.5786C60.1566 84.3654 61.1925 87.6646 63.5617 89.2142C63.9322 89.4561 63.9322 90.5438 63.5617 90.7861C61.1925 92.3354 60.1566 95.6345 61.7374 98.4213L69.6131 112.305L85.0478 139.514C87.1965 143.302 92.5686 143.302 94.7173 139.514Z" fill="#4C73DC"/>
<path d="M94.7173 139.514L118.028 98.4213C119.608 95.6345 118.573 92.3353 116.203 90.7858C115.833 90.5438 115.833 89.4561 116.203 89.2139C118.573 87.6646 119.608 84.3654 118.027 81.5786L117.342 80.3708C108.955 98.8435 90.7959 111.778 69.613 112.305L85.0477 139.514C87.1964 143.302 92.5685 143.302 94.7173 139.514Z" fill="url(#paint0_linear_801_5)"/>
</g>
<defs>
<linearGradient id="paint0_linear_801_5" x1="89.9999" y1="64.4312" x2="89.9999" y2="151.689" gradientUnits="userSpaceOnUse">
<stop stop-color="#4C73DC"/>
<stop offset="1" stop-color="white"/>
</linearGradient>
<clipPath id="clip0_801_5">
<rect width="164.381" height="180" fill="white" transform="translate(7.80933)"/>
</clipPath>
</defs>
</svg>
