<svg width="1023" height="642" fill="none" xmlns="http://www.w3.org/2000/svg"><g opacity=".9"><path d="M355.205 548.936c-89.806 0-162.608-72.802-162.608-162.608 0-89.805 72.802-162.607 162.608-162.607s162.607 72.802 162.607 162.607c0 89.806-72.801 162.608-162.607 162.608zm431.389 66.175c-44.357 0-80.316-35.959-80.316-80.316 0-44.358 35.959-80.316 80.316-80.316 44.358 0 80.316 35.958 80.316 80.316 0 44.357-35.958 80.316-80.316 80.316z" fill="#17679C"/><path d="M97.644 516.637h22.39v22.389h-22.39v-22.389zm-22.661-22.662h22.39v22.389h-22.39v-22.389zm-22.661-22.662h22.39v22.39h-22.39v-22.39zm-22.661-22.661h22.39v22.39H29.66v-22.39zM7 425.991h22.39v22.39H7v-22.39zm536.007-205.315c-59.171 0-107.139-47.968-107.139-107.139 0-59.17 47.968-107.139 107.139-107.139 59.171 0 107.139 47.968 107.139 107.139 0 59.171-47.968 107.139-107.139 107.139zM301.244 604.18c-32.625 0-59.073-26.447-59.073-59.072s26.448-59.073 59.073-59.073 59.072 26.448 59.072 59.073-26.447 59.072-59.072 59.072z" fill="#3FB777"/><path d="M967.702 54.644c-47.192-3.845-90.75-21.018-138.304-25.058-33.622-2.85-66.339-10.554-100.112-11.685-90.901-2.805-182.435 0-273.335 0" stroke="#fff" stroke-width=".75" stroke-miterlimit="10"/><path d="M967.762 61.972c-46.739-4.523-90.705-19.042-137.655-23.324-34.301-3.136-67.033-12.333-101.635-13.434-90.343-2.85-182.088.271-272.521.95" stroke="#fff" stroke-width=".75" stroke-miterlimit="10"/><path d="M967.943 67.791c-45.88-4.357-90.886-14.76-136.72-19.72-35.628-3.876-68.783-15.938-104.862-17.083-39.111-1.237-77.467 5.729-116.472 6.136-51.262.543-102.525-3.106-153.938-2.759" stroke="#fff" stroke-width=".75" stroke-miterlimit="10"/><path d="M968.214 72.42c-44.855-3.573-91.036-8.7-135.574-14.58-37.437-4.93-71.255-21.108-109.461-22.299-39.2-1.176-76.486 10.464-115.401 12.062-50.659 2.066-101.183-5.02-151.903-5.02" stroke="#fff" stroke-width=".75" stroke-miterlimit="10"/><path d="M968.501 76.099c-44.161-2.367-90.464-2.247-134.187-8.202-39.789-5.413-74.271-27.727-115.145-28.767-39.517-.995-75.25 16.117-114.089 19.374-49.695 4.161-99.45-7.147-149.204-7.75" stroke="#fff" stroke-width=".75" stroke-miterlimit="10"/><path d="M968.938 79.1c-43.302-.83-89.89 6.453-132.679-.935-42.217-7.252-77.95-35.416-121.659-36.185-40.105-.618-73.848 22.465-112.611 27.742-48.247 6.589-97.761-9.423-146.038-10.765" stroke="#fff" stroke-width=".75" stroke-miterlimit="10"/><path d="M969.36 81.662c-42.834.92-88.639 15.8-131.172 6.89-44.327-9.273-82.201-43.905-128.653-44.071-40.709-.15-72.281 29.13-110.939 36.683-46.649 9.046-96.011-11.836-142.66-14.007" stroke="#fff" stroke-width=".75" stroke-miterlimit="10"/><path d="M969.782 84.059C926.948 86.833 883.269 109.524 840.239 99c-46.513-11.368-86.664-52.046-135.846-52.257-41.221-.166-71.029 36.185-109.264 45.925-44.87 11.534-94.263-14.308-139.178-17.324" stroke="#fff" stroke-width=".75" stroke-miterlimit="10"/><path d="M970.219 86.517c-43.301 4.689-83.678 35.145-127.96 22.917-48.428-13.388-91.338-60.414-142.947-60.309-41.854 0-69.853 43.03-107.621 55.062-43.211 13.751-92.499-16.826-135.695-20.61" stroke="#fff" stroke-width=".75" stroke-miterlimit="10"/><path d="M970.612 89.321c-43.996 6.513-80.377 44.402-126.423 30.426-50.101-15.198-95.891-68.375-149.686-67.968-42.488.316-68.752 49.754-106.054 63.701-41.809 15.695-90.689-19.269-132.573-23.732" stroke="#fff" stroke-width=".75" stroke-miterlimit="10"/><path d="M970.973 92.698c-44.794 8.142-76.984 52.771-125.005 37.211-51.564-16.751-100.067-75.597-155.732-74.843-43.227.573-67.712 55.785-104.651 71.466-40.844 17.339-88.956-21.591-129.664-26.581" stroke="#fff" stroke-width=".75" stroke-miterlimit="10"/><path d="M971.275 96.86c-45.624 9.317-73.758 59.871-123.769 42.879-25.405-8.624-49.951-25.933-72.627-39.713-24.123-14.685-58.002-41.447-88.171-40.89-44.071.815-66.642 60.958-103.475 77.98-40.317 18.681-87.282-23.671-127.358-28.979" stroke="#fff" stroke-width=".75" stroke-miterlimit="10"/><path d="M971.516 102.228c-46.468 9.891-70.863 65.103-122.743 47.147-26.099-9.047-51.429-27.501-74.587-41.945-24.395-15.213-59.209-43.634-90.011-42.97-45.126.965-65.496 64.922-102.525 82.924-40.241 19.45-85.941-25.495-125.594-30.968" stroke="#fff" stroke-width=".75" stroke-miterlimit="10"/><path d="M971.607 108.921c-47.403 9.65-68.632 68.059-121.99 49.649-26.521-9.136-52.484-28.556-75.854-43.392-24.666-15.65-59.615-44.749-90.975-44.055-46.438 1.01-64.199 67.349-102.088 85.729-40.709 19.721-84.9-26.974-124.749-32.281" stroke="#fff" stroke-width=".75" stroke-miterlimit="10"/><path d="M971.757 116.988c-47.222 9.665-68.752 67.938-121.808 49.409-26.627-9.303-52.68-28.406-76.321-43.167-24.757-15.439-59.932-44.462-91.172-44.01-46.589.618-63.807 67.727-101.666 86.031-41.146 19.886-84.643-27.411-124.839-32.522" stroke="#fff" stroke-width=".75" stroke-miterlimit="10"/><path d="M972.722 125.673c-46.438 9.891-70.998 64.666-122.593 46.574-26.747-9.408-52.77-27.139-76.969-41.282-24.907-14.624-61.063-42.985-91.79-42.759-45.533.347-63.324 67.064-100.067 85.232-41.116 20.324-85.066-27.426-125.352-32.522" stroke="#fff" stroke-width=".75" stroke-miterlimit="10"/><path d="M974.531 134.765c-46.181 9.378-73.712 59.102-124.1 42.08-26.943-9.046-53.102-25.179-77.994-38.522-25.36-13.57-62.511-40.709-92.906-40.347-44.493.558-61.651 65.873-97.369 83.935-40.95 20.701-85.94-27.667-126.151-32.778" stroke="#fff" stroke-width=".75" stroke-miterlimit="10"/><path d="M976.854 144.173c-46.122 8.293-76.894 51.61-126.197 36.186-27.139-8.474-53.705-22.797-79.291-34.995-26.023-12.423-64.184-37.693-94.383-36.969-43.468 1.116-59.133 64.214-93.856 82.171-40.708 21.018-87.026-28.119-127.176-33.291" stroke="#fff" stroke-width=".75" stroke-miterlimit="10"/><path d="M979.733 153.837c-46.121 6.725-80.482 42.699-128.744 29.386-27.516-7.539-54.459-20.068-80.769-30.878-26.852-11.052-65.917-34.165-96.087-32.793-42.578 1.93-55.786 62.253-89.8 79.909-40.512 21.108-88.217-28.647-128.382-33.969" stroke="#fff" stroke-width=".75" stroke-miterlimit="10"/><path d="M982.93 163.668c-46.076 4.87-84.267 32.914-131.549 21.847-27.863-6.513-55.318-17.007-82.322-26.25-27.817-9.513-67.651-30.154-97.911-27.998-42.789 3.016-50.78 61.183-85.458 77.256-42.548 19.721-87.794-29.22-129.814-34.768" stroke="#fff" stroke-width=".75" stroke-miterlimit="10"/><path d="M986.322 173.604c-43.468 2.623-84.432 22.163-128.337 15.077-36.457-5.85-72.205-17.761-107.787-27.305-23.943-6.423-55.786-19.6-80.995-16.72-43.799 5.066-47.9 60.067-85.654 74.798-41.055 16.012-87.191-32.296-127.598-37.693" stroke="#fff" stroke-width=".75" stroke-miterlimit="10"/><path d="M989.76 183.539c-43.935.799-87.222 12.348-131.172 6.996-36.834-4.523-73.245-13.404-109.596-20.641-24.742-4.915-56.676-15.891-82.171-12.499-42.216 5.594-45.232 56.932-81.598 71.285-40.905 16.133-88.956-33.17-129.257-38.567" stroke="#fff" stroke-width=".75" stroke-miterlimit="10"/><path d="M993.062 193.43c-44.599-.92-89.333 2.849-133.856-.845-37.18-3.015-74.165-9.046-111.134-13.856-25.526-3.362-57.294-12.061-83.136-8.232-40.542 6.031-43.106 53.554-78.07 67.35-40.904 16.133-90.463-34.014-130.915-39.532" stroke="#fff" stroke-width=".75" stroke-miterlimit="10"/><path d="M996.107 203.184c-45.443-2.442-90.78-6.03-136.253-8.021-37.437-1.703-74.843-4.628-112.235-7.131-26.264-1.764-57.595-8.112-83.799-4.011-38.959 6.031-41.643 49.921-75.386 62.993-41.115 15.952-91.85-34.874-132.559-40.513" stroke="#fff" stroke-width=".75" stroke-miterlimit="10"/><path d="M998.746 212.712c-46.318-3.618-91.655-13.705-138.213-14.172-37.603-.392-75.205-.438-112.808-.634-26.867-.15-57.444-4.221-84.07 0-37.407 6.001-41.041 46.106-73.683 58.229-41.809 15.514-92.845-35.643-134.097-41.433" stroke="#fff" stroke-width=".75" stroke-miterlimit="10"/><path d="M1000.81 222c-47.1-4.312-91.97-20.022-139.599-18.997-63.731 1.387-133.599-.573-196.561 9.197-36.065 5.609-41.523 42.066-73.336 52.997-42.955 14.745-93.253-36.321-135.363-42.217" stroke="#fff" stroke-width=".75" stroke-miterlimit="10"/><path d="M1002.15 230.851c-45.711-4.101-88.47-23.822-134.667-22.419-66.053 2.035-135.875 9.272-201.326 18.092-35.22 4.75-44.462 40.709-77.104 48.338-44.478 10.343-89.665-37.829-133.087-43.724" stroke="#fff" stroke-width=".75" stroke-miterlimit="10"/><path d="M1002.64 239.294c-46.05-3.362-88.025-25.948-134.659-23.566-65.782 3.347-132.046 18.364-197.512 25.782-34.677 3.936-48.111 35.914-80.723 41.975-46.362 8.609-88.775-38.07-133.795-44.191" stroke="#fff" stroke-width=".75" stroke-miterlimit="10"/><path d="M1002.11 247.511c-45.716-4.085-89.048-24.651-135.29-22.314-64.048 3.257-129.498 15.469-193.124 23.551-34.678 4.402-51.639 35.838-84.628 41.718-45.76 8.157-88.715-36.381-133.117-42.97" stroke="#fff" stroke-width=".75" stroke-miterlimit="10"/><path d="M1000.6 255.728c-47.553-4.312-93.735-21.832-141.726-18.892-59.615 3.649-121.055 10.419-180.203 18.53-34.451 4.72-54.715 32.552-87.447 39.653-46.287 10.072-90.464-32.521-135.228-39.321" stroke="#fff" stroke-width=".75" stroke-miterlimit="10"/><path d="M998.323 263.975c-47.779-3.724-95.227-16.343-143.233-14.534-56.57 2.141-115.446 4.9-171.609 11.866-35.567 4.417-60.128 31.059-94.353 37.693-46.031 8.941-88.503-28.752-133.252-35.115" stroke="#fff" stroke-width=".75" stroke-miterlimit="10"/><path d="M995.398 272.223c-101.771-5.609-204.748-15.605-306.7-5.262-37.181 3.77-66.099 28.843-102.254 34.949-45.352 7.659-86.211-24.319-130.493-29.822" stroke="#fff" stroke-width=".75" stroke-miterlimit="10"/><path d="M992.021 280.486c-49.031-1.191-98.092-.799-147.153-2.699-49.423-1.915-101.319-8.745-150.667-5.262-39.065 2.759-72.672 24.802-110.833 31.572-43.588 7.719-84.583-19.525-127.462-23.807" stroke="#fff" stroke-width=".75" stroke-miterlimit="10"/><path d="M988.357 288.747c-49.649.407-99.75 8.624-149.264 4.207-45.729-4.086-93.222-16.254-139.148-14.701-41.1 1.387-79.426 21.108-119.773 27.561-42.216 6.71-82.337-14.368-124.191-17.338" stroke="#fff" stroke-width=".75" stroke-miterlimit="10"/><path d="M984.558 297.024c-49.755 2.111-101.922 18.605-151.571 11.368-42.217-6.136-84.689-23.716-127.448-24.018-43.166-.316-86.181 17.294-128.805 23.008-40.829 5.473-80.12-9.046-120.783-10.705" stroke="#fff" stroke-width=".75" stroke-miterlimit="10"/><path d="M980.789 305.288c-50.75 3.92-107.727 29.597-158.115 17.55-36.397-8.699-73.622-31.662-111.24-32.778-43.362-1.176-89.95 13.223-133.086 18.425-41.131 4.96-81.251-3.302-122.397-3.604" stroke="#fff" stroke-width=".75" stroke-miterlimit="10"/><path d="M977.23 313.55c-50.945 5.458-109.355 37.769-160.029 24.229-34.286-9.152-64.44-37.798-100.565-40.15-45.232-2.94-95.982 9.121-141.319 13.117-39.758 3.513-79.517 1.372-119.366 2.322" stroke="#fff" stroke-width=".75" stroke-miterlimit="10"/><path d="M974.049 321.813c-49.755 6.498-112.581 46.739-161.839 30.425-32.099-10.554-56.177-42.427-91.006-45.879-46.995-4.644-101.273 4.749-148.676 7.387-38.884 2.171-77.693 5.564-116.577 7.539" stroke="#fff" stroke-width=".75" stroke-miterlimit="10"/><path d="M971.411 330.06c-48.474 7.131-115.507 54.051-163.483 35.853-30.561-11.579-48.789-45.156-83-49.408-48.744-6.031-105.419.106-154.843 1.267-38.658.904-75.717 9.046-114.134 11.7" stroke="#fff" stroke-width=".75" stroke-miterlimit="10"/><path d="M969.466 338.292c-32.296 4.96-59.812 16.781-90.057 28.646-22.977 9.047-50.237 21.591-74.843 11.655-29.672-12.062-42.849-45.624-76.894-50.267-50.629-6.891-108.088-4.705-159.471-5.202-39.005-.377-73.879 11.609-112.19 14.549" stroke="#fff" stroke-width=".75" stroke-miterlimit="10"/><path d="M968.395 346.509c-32.898 4.87-60.158 17.55-90.644 30.154-22.269 9.243-50.931 22.782-75.386 13.208-29.461-11.549-38.99-43.453-73.275-47.9-52.65-6.83-109.099-9.62-162.307-11.972-39.608-1.749-72.204 13.087-110.832 15.801" stroke="#fff" stroke-width=".75" stroke-miterlimit="10"/><path d="M968.365 354.681c-33.034 4.81-60.173 17.61-90.72 30.396-22.133 9.257-51.157 22.797-75.657 13.841-29.461-10.765-38.552-40.709-72.627-44.855-53.419-6.589-108.737-12.303-162.547-15.876-40.046-2.669-71.934 13.328-110.863 15.876" stroke="#fff" stroke-width=".75" stroke-miterlimit="10"/><path d="M969.36 362.884c-32.627 4.869-60.037 17.127-90.463 29.37-22.39 9.046-50.931 22.043-75.492 13.358-29.234-10.343-40.181-38.869-73.501-43.362-52.605-7.086-106.807-13.102-159.819-17.444-41.16-3.377-74.149 13.961-114.179 17.444" stroke="#fff" stroke-width=".75" stroke-miterlimit="10"/><path d="M971.245 371.04c-49.393 7.176-115.477 56.645-165.232 40.211-29.144-9.62-42.502-36.035-74.994-40.799-51.262-7.539-103.399-14.731-154.963-20.324-42.91-4.674-78.402 15.378-120.105 20.324" stroke="#fff" stroke-width=".75" stroke-miterlimit="10"/><path d="M973.853 379.196c-50.086 6.755-113.893 51.881-164.342 36.849-29.099-8.67-45.397-32.356-77.014-37.392-49.514-7.9-98.997-16.856-148.631-24.033-44.659-6.468-84.433 17.399-127.915 24.033" stroke="#fff" stroke-width=".75" stroke-miterlimit="10"/><path d="M977.004 387.323c-50.931 6.03-111.993 46.181-163.316 32.853-28.858-7.539-49.197-27.29-79.382-33.321-47.101-9.423-94.217-19.208-141.424-28.089-45.94-8.609-92.061 19.827-137.007 28.089" stroke="#fff" stroke-width=".75" stroke-miterlimit="10"/><path d="M980.562 395.464c-51.76 5.156-110.063 39.759-162.155 28.39-28.843-6.287-52.604-22.826-82.05-28.812-44.915-9.046-89.287-21.5-133.901-31.979-46.558-10.946-100.761 22.375-146.475 31.979" stroke="#fff" stroke-width=".75" stroke-miterlimit="10"/><path d="M984.287 403.591c-51.625 3.92-105.194 31.316-157.165 24.229-30.155-4.101-57.942-19.706-88.202-25.39-44.568-8.383-87.086-26.867-131.534-35.703-46.588-9.257-105.736 26.084-151.435 36.517" stroke="#fff" stroke-width=".75" stroke-miterlimit="10"/><path d="M988.101 411.717c-51.745 2.774-103.882 24.787-155.868 19.329-30.305-3.166-60.882-14.851-90.931-20.595-42.653-8.172-82.924-28.119-125.216-37.844-25.631-5.865-50.343 5.503-74.723 13.569-28.36 9.379-56.313 18.304-85.397 25.27" stroke="#fff" stroke-width=".75" stroke-miterlimit="10"/><path d="M991.78 419.844c-51.61 1.673-102.857 18.499-154.617 14.579-30.667-2.322-63.415-10.222-93.63-15.906-40.874-7.675-79.396-32.296-120.406-38.402-51.851-7.704-116.095 27.214-167.176 39.517" stroke="#fff" stroke-width=".75" stroke-miterlimit="10"/><path d="M995.187 427.971c-51.262.694-102.072 12.785-153.456 10.177a823.048 823.048 0 01-96.177-11.459c-40.06-7.01-77.618-30.908-117.723-36.939-52.77-7.945-119.743 25.963-171.88 38.085" stroke="#fff" stroke-width=".75" stroke-miterlimit="10"/><path d="M998.143 436.097c-84.101-.075-167.011 11.368-250.946-1.161-39.954-6.031-77.783-27.546-117.722-32.944-53.856-7.282-120.241 22.767-173.524 34.03" stroke="#fff" stroke-width=".75" stroke-miterlimit="10"/><path d="M1000.48 444.269c-83.619-.829-169.348 9.574-252.755 0-41.688-4.795-82.352-24.244-124.176-27.742-53.373-4.523-114.994 18.635-167.598 27.742" stroke="#fff" stroke-width=".75" stroke-miterlimit="10"/><path d="M1002.03 452.441c-84.189-.859-169.315 5.126-253.415 0-44.101-2.699-87.87-14.745-132.016-16.585-52.771-2.246-108.21 10.78-160.648 16.585m546.689 8.187c-182.228-.196-364.466-1.689-546.689 0" stroke="#fff" stroke-width=".75" stroke-miterlimit="10"/><path d="M251.029 381.99h32.009v32.009h-32.009V381.99zm-32.009 0h32.009v32.009H219.02V381.99z" stroke="#fff" stroke-width=".25" stroke-miterlimit="10"/><path d="M187.012 381.99h32.009v32.009h-32.009V381.99z" stroke="#fff" stroke-width=".25" stroke-miterlimit="10"/><path d="M155.018 381.99h32.009v32.009h-32.009V381.99z" stroke="#fff" stroke-width=".25" stroke-miterlimit="10"/><path d="M123.009 381.99h32.009v32.009h-32.009V381.99zm-32.009 0h32.009v32.009h-32.01V381.99zm160.029 32.008h32.009v32.009h-32.009v-32.009zm-32.009 0h32.009v32.009H219.02v-32.009z" stroke="#fff" stroke-width=".25" stroke-miterlimit="10"/><path d="M187.012 413.998h32.009v32.009h-32.009v-32.009z" stroke="#fff" stroke-width=".25" stroke-miterlimit="10"/><path d="M155.018 413.998h32.009v32.009h-32.009v-32.009z" stroke="#fff" stroke-width=".25" stroke-miterlimit="10"/><path d="M123.009 413.998h32.009v32.009h-32.009v-32.009zm-32.009 0h32.009v32.009h-32.01v-32.009zm160.029 31.995h32.009v32.009h-32.009v-32.009zm-32.009 0h32.009v32.009H219.02v-32.009z" stroke="#fff" stroke-width=".25" stroke-miterlimit="10"/><path d="M187.012 445.993h32.009v32.009h-32.009v-32.009z" stroke="#fff" stroke-width=".25" stroke-miterlimit="10"/><path d="M155.018 445.993h32.009v32.009h-32.009v-32.009z" stroke="#fff" stroke-width=".25" stroke-miterlimit="10"/><path d="M123.009 445.993h32.009v32.009h-32.009v-32.009zm-32.009 0h32.009v32.009h-32.01v-32.009zm160.029 32.008h32.009v32.009h-32.009v-32.009zm-32.009 0h32.009v32.009H219.02v-32.009z" stroke="#fff" stroke-width=".25" stroke-miterlimit="10"/><path d="M187.012 478.001h32.009v32.009h-32.009v-32.009z" stroke="#fff" stroke-width=".25" stroke-miterlimit="10"/><path d="M155.018 478.001h32.009v32.009h-32.009v-32.009z" stroke="#fff" stroke-width=".25" stroke-miterlimit="10"/><path d="M123.009 478.001h32.009v32.009h-32.009v-32.009zm-32.009 0h32.009v32.009h-32.01v-32.009zm160.029 32.01h32.009v32.009h-32.009v-32.009zm-32.009 0h32.009v32.009H219.02v-32.009z" stroke="#fff" stroke-width=".25" stroke-miterlimit="10"/><path d="M187.012 510.011h32.009v32.009h-32.009v-32.009z" stroke="#fff" stroke-width=".25" stroke-miterlimit="10"/><path d="M155.018 510.011h32.009v32.009h-32.009v-32.009z" stroke="#fff" stroke-width=".25" stroke-miterlimit="10"/><path d="M123.009 510.011h32.009v32.009h-32.009v-32.009zm-32.009 0h32.009v32.009h-32.01v-32.009zm160.029 31.994h32.009v32.009h-32.009v-32.009zm-32.009 0h32.009v32.009H219.02v-32.009z" stroke="#fff" stroke-width=".25" stroke-miterlimit="10"/><path d="M187.012 542.005h32.009v32.009h-32.009v-32.009z" stroke="#fff" stroke-width=".25" stroke-miterlimit="10"/><path d="M155.018 542.005h32.009v32.009h-32.009v-32.009z" stroke="#fff" stroke-width=".25" stroke-miterlimit="10"/><path d="M123.009 542.005h32.009v32.009h-32.009v-32.009zm-32.009 0h32.009v32.009h-32.01v-32.009z" stroke="#fff" stroke-width=".25" stroke-miterlimit="10"/><path d="M372.649 294.974c4.523 4.418 6.514 11.414 4.448 18.801-3.196 11.474-14.776 19.601-25.827 18.199a17.124 17.124 0 01-9.801-4.614L170.916 162.204c2.518 2.428 6.544 5.322 10.464 5.835 11.051 1.508 22.616-6.709 25.827-18.183 2.066-7.403.136-14.384-4.523-18.801l169.965 163.919z" stroke="#fff" stroke-width=".5" stroke-miterlimit="10"/><path d="M372.393 295.23a16.833 16.833 0 00-9.635-4.523c-10.87-1.417-22.269 6.604-25.405 17.897a19.79 19.79 0 004.599 19.208L171.896 163.199c-4.523-4.342-6.393-11.232-4.372-18.514 3.136-11.278 14.534-19.299 25.405-17.882a16.915 16.915 0 019.649 4.523" stroke="#fff" stroke-width=".5" stroke-miterlimit="10"/><path d="M405.548 486.035h-47.101m-40.483-87.584v47.101m0 80.981v47.086m61.922-149.506l-33.29 33.291m0 57.264l33.29 33.306m19.329-94.626l-43.693 17.58m-22.451 52.681l17.596 43.679m1.628-161.825l-18.454 43.332m21.364 53.117l43.332 18.455m5.126-52.364l-46.076 9.695m-31.285 47.961l9.695 46.091m29.807-159.065l-25.722 39.442m11.791 56.028l39.442 25.737m-.573-96.585l-39.14 26.204m-11.112 56.177l26.204 39.126m-31.723-158.689l-9.151 46.197m31.858 47.585l46.196 9.137" stroke="#D9D9D9" stroke-width="2" stroke-miterlimit="10"/><path d="M405.548 28.395l-17.852 17.852m0-17.852l17.852 17.852m-56.645-17.852l-17.852 17.852m0-17.852l17.852 17.852m-56.645-17.852l-17.837 17.852m0-17.852l17.837 17.852m-56.631-17.852l-17.851 17.852m0-17.852l17.851 17.852m169.921 31.768l-17.852 17.851m0-17.851l17.852 17.851m-56.645-17.851l-17.852 17.851m0-17.851l17.852 17.851m-56.645-17.851l-17.837 17.851m0-17.851l17.837 17.851m-56.631-17.851l-17.851 17.851m0-17.851l17.851 17.851m169.921 31.767l-17.852 17.851m0-17.851l17.852 17.851m-56.645-17.851l-17.852 17.851m0-17.851l17.852 17.851m-56.645-17.851l-17.837 17.851m0-17.851l17.837 17.851m-56.631-17.851l-17.851 17.851m0-17.851l17.851 17.851m169.921 31.768l-17.852 17.851m0-17.851l17.852 17.851m-56.645-17.851l-17.852 17.851m0-17.851l17.852 17.851m-56.645-17.851l-17.837 17.851m0-17.851l17.837 17.851m-56.631-17.851l-17.851 17.851m0-17.851l17.851 17.851" stroke="#D9D9D9" stroke-miterlimit="10"/><path d="M789.2 556.773c-42.923-42.924-42.923-112.517 0-155.44 42.924-42.924 112.517-42.924 155.44 0 42.924 42.923 42.924 112.516 0 155.44-42.923 42.924-112.516 42.924-155.44 0z" stroke="#D9D9D9" stroke-width="2" stroke-miterlimit="10"/><path d="M807.152 555.03c-36.653-36.653-36.653-96.079 0-132.732 36.653-36.653 96.079-36.653 132.732 0 36.653 36.653 36.653 96.079 0 132.732-36.653 36.653-96.079 36.653-132.732 0z" stroke="#D9D9D9" stroke-width="1.8" stroke-miterlimit="10"/><path d="M880.103 576.062c-42.967 0-77.798-34.832-77.798-77.799 0-42.967 34.831-77.798 77.798-77.798s77.798 34.831 77.798 77.798-34.831 77.799-77.798 77.799z" stroke="#D9D9D9" stroke-width="1.6" stroke-miterlimit="10"/><path d="M886.692 569.593c-34.091 0-61.726-27.636-61.726-61.726 0-34.091 27.635-61.726 61.726-61.726 34.09 0 61.726 27.635 61.726 61.726 0 34.09-27.636 61.726-61.726 61.726z" stroke="#D9D9D9" stroke-width="1.4" stroke-miterlimit="10"/><path d="M893.281 563.141c-25.223 0-45.669-20.447-45.669-45.669 0-25.223 20.446-45.669 45.669-45.669 25.222 0 45.668 20.446 45.668 45.669 0 25.222-20.446 45.669-45.668 45.669z" stroke="#D9D9D9" stroke-width="1.2" stroke-miterlimit="10"/><path d="M899.884 556.688c-16.354 0-29.611-13.257-29.611-29.612 0-16.354 13.257-29.611 29.611-29.611 16.355 0 29.612 13.257 29.612 29.611 0 16.355-13.257 29.612-29.612 29.612z" stroke="#D9D9D9" stroke-miterlimit="10"/><path d="M203.172 618.884l-17.414-21.892m8.714 21.892l-17.429-21.892m8.715 21.892l-17.414-21.892m8.699 21.892l-17.414-21.892m8.714 21.892l-17.414-21.892m8.7 21.892l-17.414-21.892m8.714 21.892L133.5 596.992m8.715 21.892l-17.414-21.892m8.699 21.892l-17.414-21.892m8.715 21.892l-17.429-21.892m8.714 21.892l-17.414-21.892m8.699 21.892l-17.414-21.892m8.715 21.892l-17.43-21.892m8.715 21.892l-17.414-21.892m8.699 21.892l-17.414-21.892m8.715 21.892l-17.43-21.892m8.715 21.892l-17.414-21.892m8.7 21.892L37.7 596.992m8.714 21.892L29 596.992" stroke="#fff" stroke-width=".5" stroke-miterlimit="10"/><path d="M431.244 441.106c-34.268-34.268-34.268-89.828 0-124.097 34.268-34.268 89.828-34.268 124.096 0 34.268 34.269 34.269 89.829 0 124.097-34.268 34.268-89.828 34.268-124.096 0zm62.038-69.311v14.534m-7.252-7.267h14.519m193.637 168.262L634.42 431.215m53.494 122.381l-59.766-116.11m53.508 122.382l-59.781-116.109m53.51 122.382l-59.782-116.11m53.509 122.366l-59.781-116.094m53.509 122.366L603.059 462.56m53.509 122.382l-59.781-116.11m53.509 122.382l-59.781-116.11m53.509 122.382l-59.766-116.11m53.494 122.382l-59.766-116.11m53.493 122.381L571.713 493.92m53.495 122.382l-59.767-116.11m53.495 122.382L559.17 506.465m53.508 122.382l-59.781-116.11m53.509 122.382L546.625 519.01m53.509 122.365L540.353 525.28" stroke="#D9D9D9" stroke-miterlimit="10"/><path d="M216.389 280.893l-7.961 4.99a15.075 15.075 0 01-15.952 0v0a15.072 15.072 0 00-15.936 0v0a15.075 15.075 0 01-15.937 0v0a15.072 15.072 0 00-15.936 0l-7.991 4.976m79.713-36.547l-7.961 4.976a15.074 15.074 0 01-15.952 0 15.072 15.072 0 00-15.936 0v0a15.075 15.075 0 01-15.937 0v0a15.072 15.072 0 00-15.936 0l-7.991 4.991" stroke="#C6C6C6" stroke-width="3" stroke-miterlimit="10"/><path d="M16.41 103.334C7.347 64.936 31.128 26.461 69.526 17.398c38.398-9.062 76.872 14.719 85.935 53.117 9.063 38.397-14.718 76.872-53.116 85.935-38.398 9.062-76.873-14.719-85.935-53.116z" stroke="#C6C6C6" stroke-width="3" stroke-miterlimit="10" stroke-linecap="round"/><path d="M85.896 135.036c-26.563 0-48.096-21.533-48.096-48.096 0-26.563 21.533-48.096 48.096-48.096 26.563 0 48.096 21.533 48.096 48.096 0 26.563-21.533 48.096-48.096 48.096z" stroke="#C6C6C6" stroke-width="3" stroke-miterlimit="10" stroke-linecap="round"/><path d="M61.855 92.608c-3.139-13.3 5.098-26.625 18.397-29.764 13.299-3.138 26.624 5.098 29.763 18.397 3.139 13.3-5.097 26.625-18.396 29.764-13.3 3.139-26.625-5.098-29.764-18.397z" stroke="#C6C6C6" stroke-width="3" stroke-miterlimit="10" stroke-linecap="round"/><path d="M1006.1 106.058c-.88 0-1.59-.716-1.59-1.598a1.596 1.596 0 113.19 0c0 .882-.71 1.598-1.6 1.598zm0 12.997c-.88 0-1.59-.716-1.59-1.598a1.596 1.596 0 113.19 0c0 .882-.71 1.598-1.6 1.598zm0 12.981c-.88 0-1.59-.715-1.59-1.598a1.595 1.595 0 113.19 0c0 .883-.71 1.598-1.6 1.598zm-1.58 11.399c0 .32.1.632.28.896.18.265.43.469.73.587s.62.144.93.074c.32-.069.6-.23.82-.463.22-.233.36-.526.42-.842.05-.315 0-.639-.13-.929a1.598 1.598 0 00-1.54-.921 1.497 1.497 0 00-1.42.993c-.07.193-.1.399-.09.605zm0 12.98c0 .32.1.632.28.897a1.585 1.585 0 001.66.661c.32-.07.6-.231.82-.464.22-.232.36-.525.42-.841.05-.316 0-.64-.13-.93-.14-.29-.36-.532-.63-.697a1.589 1.589 0 00-1.98.275c-.28.297-.44.691-.44 1.099zM995.911 28.14a1.598 1.598 0 110-3.196 1.598 1.598 0 010 3.196zm0 12.996a1.598 1.598 0 110-3.196 1.598 1.598 0 010 3.196zm0 12.98a1.598 1.598 0 110-3.195 1.598 1.598 0 010 3.195zm0 12.983a1.598 1.598 0 110-3.196 1.598 1.598 0 010 3.196zm-1.598 11.398a1.603 1.603 0 00.986 1.476 1.601 1.601 0 002.18-1.165 1.603 1.603 0 00-.68-1.64 1.598 1.598 0 00-.888-.27 1.586 1.586 0 00-1.598 1.599zm0 12.981a1.593 1.593 0 00.943 1.617 1.602 1.602 0 001.831-.388 1.595 1.595 0 00-.11-2.257 1.596 1.596 0 00-2.147 0 1.596 1.596 0 00-.517 1.028zm1.598 14.58a1.598 1.598 0 110-3.196 1.598 1.598 0 010 3.196zm0 12.997a1.598 1.598 0 110-3.196 1.598 1.598 0 010 3.196zm0 12.981a1.597 1.597 0 11-.001-3.195 1.597 1.597 0 01.001 3.195zm-1.598 11.397a1.604 1.604 0 00.986 1.477 1.595 1.595 0 002.18-1.165 1.602 1.602 0 00-.68-1.641 1.604 1.604 0 00-.888-.269 1.579 1.579 0 00-1.134.464 1.576 1.576 0 00-.464 1.134zm0 12.983a1.598 1.598 0 103.196 0 1.598 1.598 0 00-3.196 0zM984.106 26.54a1.6 1.6 0 00.921 1.54 1.6 1.6 0 002.235-1.102 1.6 1.6 0 00-1.558-1.945 1.597 1.597 0 00-1.598 1.508zm0 13.027a1.595 1.595 0 00.986 1.477 1.6 1.6 0 002.179-1.165 1.595 1.595 0 00-.679-1.64 1.6 1.6 0 00-2.486 1.328zm0 12.951a1.595 1.595 0 00.986 1.477 1.6 1.6 0 002.179-1.165 1.595 1.595 0 00-.679-1.64 1.6 1.6 0 00-.888-.27 1.614 1.614 0 00-1.598 1.598zm0 12.982a1.597 1.597 0 001.9 1.585 1.6 1.6 0 001.264-1.252 1.602 1.602 0 00-.677-1.646 1.596 1.596 0 00-2.014.193 1.6 1.6 0 00-.473 1.12zm0 12.997a1.595 1.595 0 00.986 1.476 1.6 1.6 0 002.179-1.165 1.595 1.595 0 00-.679-1.64 1.6 1.6 0 00-2.486 1.329zm0 12.981a1.6 1.6 0 00.921 1.54 1.6 1.6 0 002.235-1.103 1.6 1.6 0 00-1.558-1.944 1.61 1.61 0 00-1.598 1.507zm0 12.922a1.598 1.598 0 103.19.182 1.598 1.598 0 00-3.19-.182zm-10.193-51.882a1.597 1.597 0 003.168.302 1.6 1.6 0 00-1.584-1.9 1.6 1.6 0 00-1.584 1.598zm0 12.982a1.602 1.602 0 00.98 1.489 1.6 1.6 0 10.603-3.072 1.584 1.584 0 00-1.583 1.583zm0 12.996a1.601 1.601 0 001.591 1.444 1.598 1.598 0 10-1.591-1.444zm0 12.982a1.6 1.6 0 103.078-.508 1.602 1.602 0 00-1.495-1 1.596 1.596 0 00-1.583 1.508zm0 12.922a1.6 1.6 0 002.698 1.248 1.595 1.595 0 00.38-1.757 1.6 1.6 0 00-1.495-.998 1.583 1.583 0 00-1.583 1.507zm-8.624-50.284a1.598 1.598 0 110-3.197 1.598 1.598 0 010 3.197zm0 12.983a1.598 1.598 0 110-3.197 1.598 1.598 0 010 3.197zm-1.583 11.397a1.593 1.593 0 00.99 1.478 1.6 1.6 0 002.081-2.1 1.604 1.604 0 00-1.488-.977 1.506 1.506 0 00-1.583 1.599zm0 12.982a1.598 1.598 0 103.192.182 1.598 1.598 0 00-3.192-.181zm1.583 14.58a1.599 1.599 0 11.001-3.197 1.599 1.599 0 01-.001 3.197zm0 12.997a1.599 1.599 0 11.001-3.197 1.599 1.599 0 01-.001 3.197zm0 12.981a1.598 1.598 0 110-3.196 1.598 1.598 0 010 3.196z" fill="#fff"/></g></svg>