<svg viewBox="0 0 50 50" xmlns="http://www.w3.org/2000/svg" xmlns:xlink="http://www.w3.org/1999/xlink"><style>:root&gt;svg{display:none}:root&gt;svg:target{display:block}</style><svg fill="none" viewBox="0 0 29 12" id="arrow" xmlns="http://www.w3.org/2000/svg"><path d="M28.53 6.53a.75.75 0 000-1.06L23.757.697a.75.75 0 00-1.06 1.06L26.939 6l-4.242 4.243a.75.75 0 001.06 1.06L28.53 6.53zM0 6.75h28v-1.5H0v1.5z" fill="#393838"/></svg><svg fill="none" viewBox="0 0 50 50" id="badge" xmlns="http://www.w3.org/2000/svg"><g clip-path="url(#bclip0)" fill="#3FB777"><path d="M36.008 16.55a4.228 4.228 0 00-3.105-.985 4.227 4.227 0 00-2.892 1.499l-6.36 7.552-3.069-3.192a4.26 4.26 0 00-6.018-.118 4.227 4.227 0 00-1.305 2.985 4.228 4.228 0 001.188 3.033l6.346 6.6a4.276 4.276 0 003.208 1.304 4.261 4.261 0 003.115-1.512l9.406-11.17a4.227 4.227 0 00.985-3.104 4.228 4.228 0 00-1.5-2.892zm-.98 4.738l-9.406 11.17a2.305 2.305 0 01-3.42.113l-6.348-6.601a2.289 2.289 0 01-.642-1.641 2.288 2.288 0 01.706-1.615 2.295 2.295 0 011.596-.642c.605 0 1.209.236 1.66.706l3.822 3.974a.979.979 0 001.45-.048l7.06-8.382a2.28 2.28 0 011.564-.811 2.287 2.287 0 011.68.533c.47.396.758.952.81 1.564a2.288 2.288 0 01-.532 1.68z"/><path d="M25 5.673c-10.657 0-19.327 8.67-19.327 19.326 0 10.657 8.67 19.327 19.327 19.327 10.657 0 19.326-8.67 19.326-19.327 0-10.656-8.67-19.326-19.326-19.326zm0 36.7c-9.58 0-17.374-7.794-17.374-17.373C7.626 15.42 15.42 7.626 25 7.626c9.58 0 17.373 7.794 17.373 17.373 0 9.58-7.793 17.374-17.373 17.374z"/><path d="M48.666 28.357C49.29 27.385 50 26.283 50 25c0-1.283-.709-2.385-1.334-3.358-.419-.65-.814-1.265-.941-1.822-.136-.595-.045-1.342.05-2.133.144-1.184.292-2.408-.247-3.523-.548-1.135-1.657-1.815-2.635-2.415-.67-.41-1.304-.8-1.673-1.26-.372-.465-.612-1.171-.867-1.919-.368-1.082-.785-2.308-1.765-3.09-.975-.776-2.261-.91-3.396-1.03-.79-.083-1.536-.16-2.079-.422-.525-.253-1.04-.78-1.588-1.336-.807-.823-1.722-1.755-2.962-2.037-1.195-.27-2.349.143-3.465.544-.758.272-1.475.53-2.098.53-.623 0-1.34-.258-2.098-.53-1.116-.4-2.27-.815-3.465-.544-1.24.282-2.155 1.214-2.963 2.037-.546.557-1.062 1.083-1.587 1.336-.543.261-1.29.34-2.08.422-1.134.12-2.42.254-3.395 1.03-.98.782-1.397 2.008-1.765 3.09-.255.748-.495 1.454-.867 1.92-.369.46-1.002.848-1.673 1.26-.978.6-2.087 1.28-2.635 2.414-.54 1.115-.391 2.34-.248 3.523.096.79.187 1.538.051 2.133-.127.557-.522 1.172-.94 1.822C.708 22.615 0 23.717 0 25s.709 2.385 1.334 3.357c.419.65.814 1.265.941 1.823.136.594.045 1.341-.05 2.133-.144 1.183-.292 2.407.247 3.522.548 1.135 1.657 1.815 2.635 2.415.67.411 1.304.8 1.673 1.26.372.465.612 1.172.867 1.92.368 1.081.786 2.307 1.765 3.088.975.777 2.26.912 3.396 1.031.79.083 1.536.161 2.079.423.525.252 1.04.779 1.588 1.335.807.823 1.722 1.755 2.962 2.037 1.195.271 2.349-.143 3.465-.543.758-.273 1.475-.53 2.098-.53.623 0 1.34.257 2.098.53.867.31 1.756.63 2.67.63.263 0 .528-.027.795-.087 1.24-.282 2.155-1.214 2.963-2.037.546-.557 1.062-1.083 1.587-1.336.543-.261 1.29-.34 2.08-.422 1.134-.119 2.42-.254 3.395-1.03.98-.782 1.397-2.008 1.765-3.09.255-.747.495-1.454.867-1.919.369-.46 1.002-.849 1.673-1.26.978-.6 2.087-1.28 2.635-2.415.54-1.115.39-2.339.248-3.522-.096-.792-.187-1.539-.051-2.134.127-.557.522-1.171.94-1.822zM47.023 27.3c-.491.764-1 1.554-1.203 2.446-.21.926-.095 1.88.017 2.802.114.945.222 1.838-.067 2.438-.3.619-1.076 1.095-1.898 1.599-.784.48-1.595.978-2.177 1.705-.586.733-.893 1.636-1.19 2.51-.31.909-.602 1.767-1.135 2.191-.528.422-1.428.516-2.381.616-.922.096-1.874.196-2.724.605-.832.4-1.494 1.075-2.134 1.727-.678.692-1.32 1.346-2 1.5-.64.146-1.482-.157-2.373-.477-.882-.316-1.795-.644-2.758-.644-.963 0-1.876.328-2.758.644-.891.32-1.733.622-2.372.477-.681-.154-1.323-.808-2.001-1.5-.64-.652-1.302-1.326-2.134-1.727-.85-.409-1.802-.509-2.724-.605-.953-.1-1.853-.194-2.381-.616-.533-.424-.825-1.282-1.134-2.191-.298-.874-.605-1.777-1.191-2.51-.582-.727-1.393-1.224-2.177-1.705-.822-.504-1.599-.98-1.898-1.6-.29-.599-.181-1.492-.067-2.438.112-.922.227-1.875.017-2.8-.203-.893-.712-1.683-1.203-2.447-.527-.818-1.024-1.591-1.024-2.3 0-.71.497-1.483 1.024-2.3.491-.765 1-1.555 1.203-2.447.21-.925.095-1.879-.017-2.801-.114-.946-.222-1.839.067-2.438.3-.62 1.076-1.095 1.898-1.6.784-.48 1.595-.978 2.177-1.705.586-.732.893-1.636 1.19-2.51.31-.908.602-1.767 1.135-2.191.528-.421 1.428-.515 2.381-.615.922-.097 1.874-.197 2.724-.606.832-.4 1.494-1.075 2.134-1.727.678-.692 1.32-1.345 2-1.5.64-.145 1.482.157 2.373.477.882.317 1.795.644 2.758.644.963 0 1.876-.327 2.758-.644.891-.32 1.733-.622 2.372-.477.681.155 1.323.808 2.001 1.5.64.652 1.302 1.326 2.134 1.727.85.41 1.802.509 2.724.606.953.1 1.853.194 2.381.615.533.424.825 1.283 1.134 2.191.298.874.605 1.777 1.191 2.51.582.727 1.393 1.224 2.177 1.705.822.504 1.599.98 1.898 1.6.29.6.181 1.492.067 2.438-.112.922-.227 1.875-.017 2.801.203.892.712 1.682 1.203 2.446.527.819 1.024 1.592 1.024 2.3 0 .71-.497 1.483-1.024 2.301z"/></g><defs><clipPath id="bclip0"><path fill="#fff" d="M0 0h50v50H0z"/></clipPath></defs></svg><svg fill="none" viewBox="0 0 28 50" id="dollar-tag" xmlns="http://www.w3.org/2000/svg"><path d="M26.65 16.938l-6.877-8.694a7.403 7.403 0 00-4.723-2.716V1.045C15.05.47 14.58 0 14.005 0c-.574 0-1.045.47-1.045 1.045v4.483a7.265 7.265 0 00-4.712 2.716L1.35 16.95a4.354 4.354 0 00-.93 2.675v26.113A4.281 4.281 0 004.716 50h18.547a4.281 4.281 0 004.316-4.243V19.624c0-.972-.334-1.912-.93-2.686zm-12.645-1.222a3.037 3.037 0 013.041 3.04 3.037 3.037 0 01-3.04 3.041 3.037 3.037 0 01-3.041-3.04 3.044 3.044 0 013.04-3.041zM25.5 45.736c0 1.223-1.003 2.174-2.226 2.174H4.737c-1.223 0-2.226-.95-2.226-2.173V19.623c0-.502.167-.993.48-1.38L9.879 9.54a5.24 5.24 0 013.081-1.89v6.081a5.13 5.13 0 00-3.98 6.071 5.13 5.13 0 006.07 3.982 5.13 5.13 0 003.982-6.072 5.14 5.14 0 00-3.982-3.98V7.648a5.211 5.211 0 013.072 1.891l6.897 8.694c.314.397.48.888.48 1.39v26.113z" fill="#3FB777"/></svg><svg fill="none" viewBox="0 0 19 19" id="messenger" xmlns="http://www.w3.org/2000/svg"><g clip-path="url(#dclip0)"><path d="M18.707 1.887c-.232-.283-.58-.44-.98-.44a1.92 1.92 0 00-.682.136L.962 7.723C.108 8.048-.007 8.537 0 8.8c.008.262.15.743 1.021 1.02l.016.005 3.336.955 1.804 5.159c.246.703.798 1.14 1.441 1.14.405 0 .804-.17 1.153-.491l2.064-1.9 2.993 2.41.03.024.007.006c.333.258.696.394 1.05.394.694 0 1.246-.513 1.407-1.306l2.635-13.013c.105-.522.017-.99-.25-1.316zM5.489 10.6l6.436-3.289-4.008 4.259a.556.556 0 00-.135.248l-.773 3.13L5.49 10.6zm2.528 5.17a1.066 1.066 0 01-.08.067l.717-2.904 1.304 1.05-1.94 1.787zm9.849-12.787L15.23 15.995c-.025.124-.106.414-.314.414-.103 0-.233-.056-.365-.158l-3.391-2.73-.002-.002-2.018-1.625 5.796-6.158a.557.557 0 00-.659-.877l-9.532 4.87-3.382-.968 16.079-6.138a.816.816 0 01.286-.062c.034 0 .095.004.117.031.03.036.067.16.02.39z" fill="#fff"/></g><defs><clipPath id="dclip0"><path fill="#fff" d="M0 0h19v19H0z"/></clipPath></defs></svg><svg fill="none" viewBox="0 0 19 18" id="messenger-dark" xmlns="http://www.w3.org/2000/svg"><path d="M18.707 1.437c-.232-.284-.58-.44-.98-.44a1.92 1.92 0 00-.682.136L.962 7.273c-.854.325-.969.814-.962 1.076.008.263.15.744 1.021 1.021l.016.005 3.336.955 1.804 5.159c.246.703.798 1.14 1.441 1.14.405 0 .804-.17 1.153-.491l2.064-1.9 2.993 2.41.03.023.007.007c.333.258.696.394 1.05.394.694 0 1.246-.513 1.407-1.307l2.635-13.012c.105-.522.017-.99-.25-1.316zM5.489 10.148l6.436-3.288-4.008 4.259a.556.556 0 00-.135.248l-.773 3.13-1.52-4.349zm2.528 5.17a1.066 1.066 0 01-.08.067l.717-2.903 1.304 1.05-1.94 1.787zm9.849-12.786L15.23 15.544c-.025.125-.106.415-.314.415-.103 0-.233-.056-.365-.158L11.16 13.07l-.002-.001-2.018-1.625 5.796-6.158a.557.557 0 00-.659-.878l-9.532 4.87-3.382-.967 16.079-6.138a.816.816 0 01.286-.063c.034 0 .095.004.117.032.03.036.067.16.02.39z" fill="#0F1137"/></svg><svg fill="none" viewBox="0 0 50 50" id="money-bag" xmlns="http://www.w3.org/2000/svg"><g clip-path="url(#fclip0)" fill="#3FB777"><path d="M47.468 42.094a3.004 3.004 0 01-1.095-2.427c.011-.345.017-.696.017-1.043 0-5.02-1.12-9.833-3.326-14.303a32.69 32.69 0 00-7.867-10.17c.596-.57.969-1.371.969-2.259a3.129 3.129 0 00-2.931-3.118l3.415-6.449a.977.977 0 00-.173-1.147 4.032 4.032 0 00-5.696 0 2.061 2.061 0 01-1.466.607 2.06 2.06 0 01-1.467-.607 4.032 4.032 0 00-5.696 0 2.06 2.06 0 01-1.467.607 2.06 2.06 0 01-1.466-.607 4.032 4.032 0 00-5.696 0 .977.977 0 00-.173 1.147l3.415 6.449a3.129 3.129 0 00-2.931 3.118c0 .888.372 1.69.968 2.259a32.691 32.691 0 00-7.866 10.17c-2.207 4.47-3.326 9.283-3.326 14.303 0 .346.006.696.017 1.043.03.942-.38 1.85-1.095 2.427a4.443 4.443 0 002.513 7.897 4.417 4.417 0 003.279-1.157c.682-.624 1.663-.86 2.624-.631A60.725 60.725 0 0025 49.846c4.746 0 9.473-.553 14.051-1.643.962-.23 1.943.007 2.625.631.827.758 2.023 1.162 3.138 1.162.093 0-.094.006 0 0 2.235-.137 4.164-1.93 4.3-4.165a4.46 4.46 0 00-1.646-3.737zM17.838 2.56c.76.76 1.772 1.18 2.848 1.18a4.001 4.001 0 002.847-1.18 2.077 2.077 0 012.934 0c.76.76 1.772 1.18 2.848 1.18a4.001 4.001 0 002.847-1.18 2.078 2.078 0 012.367-.403l-3.5 6.611H18.971l-3.5-6.61a2.078 2.078 0 012.366.402zm-.879 8.162h16.082c.646 0 1.172.525 1.172 1.171 0 .647-.526 1.172-1.172 1.172H16.959a1.173 1.173 0 01-1.171-1.172c0-.646.525-1.171 1.171-1.171zm30.206 34.991c-.075 1.231-1.099 2.255-2.33 2.33a2.478 2.478 0 01-1.84-.649c-1.16-1.062-2.804-1.47-4.396-1.09A58.764 58.764 0 0125 47.892c-4.594 0-9.17-.535-13.6-1.59-1.592-.38-3.234.028-4.395 1.09a2.48 2.48 0 01-1.84.649c-1.231-.075-2.254-1.099-2.33-2.33a2.47 2.47 0 01.924-2.098 4.968 4.968 0 001.82-4.01c-.01-.325-.015-.655-.015-.98 0-9.215 4.095-17.801 11.248-23.61.049.002 16.327.002 16.376 0 7.152 5.809 11.248 14.395 11.248 23.61 0 .327-.005.657-.015.98a4.964 4.964 0 001.82 4.01c.637.514.974 1.28.924 2.098z"/><path d="M25 25.508c1.43 0 2.593 1.015 2.593 2.263a.977.977 0 001.953 0c0-2.014-1.53-3.702-3.57-4.117v-.47a.977.977 0 00-1.953 0v.47c-2.038.415-3.57 2.103-3.57 4.117 0 2.325 2.04 4.216 4.547 4.216 1.43 0 2.593 1.015 2.593 2.263S26.43 36.513 25 36.513s-2.593-1.015-2.593-2.263a.977.977 0 00-1.953 0c0 2.014 1.53 3.702 3.57 4.117v.595a.977.977 0 001.953 0v-.595c2.038-.415 3.57-2.103 3.57-4.117 0-2.325-2.04-4.216-4.547-4.216-1.43 0-2.593-1.015-2.593-2.263S23.57 25.508 25 25.508z"/></g><defs><clipPath id="fclip0"><path fill="#fff" d="M0 0h50v50H0z"/></clipPath></defs></svg></svg>